<?xml version="1.0" encoding="UTF-8" standalone="no"?><svg xmlns="http://www.w3.org/2000/svg" xmlns:xlink="http://www.w3.org/1999/xlink" contentStyleType="text/css" height="368px" preserveAspectRatio="none" style="width:405px;height:368px;background:#FFFFFF;" version="1.1" viewBox="0 0 405 368" width="405px" zoomAndPan="magnify"><defs/><g><!--MD5=[a288e7e34db1f51eaf8904506d727000]
class CentroComercial--><g id="elem_CentroComercial"><rect fill="#F1F1F1" height="27.6094" id="CentroComercial" rx="2.5" ry="2.5" style="stroke:#181818;stroke-width:0.5;" width="112" x="82.94" y="7"/><text fill="#000000" font-family="sans-serif" font-size="14" lengthAdjust="spacing" textLength="106" x="85.94" y="26.5332">CentroComercial</text></g><!--MD5=[b2b224e876b723bde36af294211d87d8]
class Caja--><g id="elem_Caja"><rect fill="#F1F1F1" height="27.6094" id="Caja" rx="2.5" ry="2.5" style="stroke:#181818;stroke-width:0.5;" width="35" x="110.44" y="335"/><text fill="#000000" font-family="sans-serif" font-size="14" lengthAdjust="spacing" textLength="29" x="113.44" y="354.5332">Caja</text></g><!--MD5=[20a748d5ee336a9a91751b0a3d4f0beb]
class Cliente--><g id="elem_Cliente"><rect fill="#F1F1F1" height="27.6094" id="Cliente" rx="2.5" ry="2.5" style="stroke:#181818;stroke-width:0.5;" width="50" x="113.94" y="113"/><text fill="#000000" font-family="sans-serif" font-size="14" lengthAdjust="spacing" textLength="44" x="116.94" y="132.5332">Cliente</text></g><!--MD5=[cfddeba515cfed8010a010971b40569e]
class Cajero--><g id="elem_Cajero"><rect fill="#F1F1F1" height="27.6094" id="Cajero" rx="2.5" ry="2.5" style="stroke:#181818;stroke-width:0.5;" width="48" x="286.94" y="171"/><text fill="#000000" font-family="sans-serif" font-size="14" lengthAdjust="spacing" textLength="42" x="289.94" y="190.5332">Cajero</text></g><!--MD5=[1919ef7aecc5209ad78f9ad723215264]
class Cola--><g id="elem_Cola"><rect fill="#F1F1F1" height="27.6094" id="Cola" rx="2.5" ry="2.5" style="stroke:#181818;stroke-width:0.5;" width="35" x="226.44" y="229"/><text fill="#000000" font-family="sans-serif" font-size="14" lengthAdjust="spacing" textLength="29" x="229.44" y="248.5332">Cola</text></g><!--MD5=[355a6ca1d2b3649bda5bb4b915093dce]
link CentroComercial to Caja--><g id="link_CentroComercial_Caja"><path codeLine="5" d="M124.45,35 C99.02,58.93 47.22,112.83 27.94,171 C6,237.16 77.43,306.59 111.22,334.86 " fill="none" id="CentroComercial-Caja" style="stroke:#181818;stroke-width:1.0;"/><polygon fill="#000000" points="32.7196,190.1709,36.0544,181.2642,30.1822,181.0051,32.7196,190.1709" style="stroke:#000000;stroke-width:1.0;"/><text fill="#000000" font-family="sans-serif" font-size="13" lengthAdjust="spacing" textLength="65" x="41.94" y="190.4951">Dispone de</text></g><!--MD5=[5935fe18d4e5efb8ca8820e15c550621]
link CentroComercial to Cliente--><g id="link_CentroComercial_Cliente"><path codeLine="6" d="M138.94,35.17 C138.94,55.18 138.94,92.99 138.94,112.94 " fill="none" id="CentroComercial-Cliente" style="stroke:#181818;stroke-width:1.0;"/><polygon fill="#000000" points="143.94,79.1758,146.8789,70.1307,141.0011,70.1307,143.94,79.1758" style="stroke:#000000;stroke-width:1.0;"/><text fill="#000000" font-family="sans-serif" font-size="13" lengthAdjust="spacing" textLength="35" x="152.94" y="79.4951">recibe</text></g><!--MD5=[1d1b4a7125166785786543efc72ba4c9]
link CentroComercial to Cajero--><g id="link_CentroComercial_Cajero"><path codeLine="7" d="M158.37,35.17 C169.94,43.31 184.71,54.23 196.94,65 C237.29,100.56 279.85,148.07 299.62,170.8 " fill="none" id="CentroComercial-Cajero" style="stroke:#181818;stroke-width:1.0;"/><polygon fill="#000000" points="224.5466,77.6388,220.0578,69.2542,215.9867,73.494,224.5466,77.6388" style="stroke:#000000;stroke-width:1.0;"/><text fill="#000000" font-family="sans-serif" font-size="13" lengthAdjust="spacing" textLength="47" x="229.94" y="79.4951">contrata</text></g><!--MD5=[9087b5b5fed9e6f14c08f7fb553bd42e]
link Cajero to Caja--><g id="link_Cajero_Caja"><path codeLine="12" d="M315.54,199.15 C322.99,223.1 334.55,274.16 309.94,305 C289.38,330.76 186.98,342.7 145.46,346.55 " fill="none" id="Cajero-Caja" style="stroke:#181818;stroke-width:1.0;"/><polygon fill="#000000" points="325.1615,246.4504,333.9216,242.7475,330.0721,238.3056,325.1615,246.4504" style="stroke:#000000;stroke-width:1.0;"/><text fill="#000000" font-family="sans-serif" font-size="13" lengthAdjust="spacing" textLength="60" x="337.94" y="248.4951">atiende en</text></g><!--MD5=[bc7ac8e2abbcd49f7caebaa242deaee9]
link Cliente to Cola--><g id="link_Cliente_Cola"><path codeLine="14" d="M148.67,141.04 C159.79,155.65 178.78,179.8 196.94,199 C206.97,209.61 219.15,220.71 228.6,228.97 " fill="none" id="Cliente-Cola" style="stroke:#181818;stroke-width:1.0;"/><polygon fill="#000000" points="205.3032,188.8756,201.3938,180.2057,197.0444,184.1594,205.3032,188.8756" style="stroke:#000000;stroke-width:1.0;"/><text fill="#000000" font-family="sans-serif" font-size="13" lengthAdjust="spacing" textLength="57" x="210.94" y="190.4951">espera en</text></g><!--MD5=[8857d9e19964488465c5c0493f4c0220]
link Cola to Caja--><g id="link_Cola_Caja"><path codeLine="16" d="M226.35,253.2 C212.16,261.09 192.15,273.32 176.94,287 C160.77,301.53 145.67,321.73 136.62,334.83 " fill="none" id="Cola-Caja" style="stroke:#181818;stroke-width:1.0;"/><polygon fill="#000000" points="178.2415,299.5404,186.9099,295.6277,182.9545,291.2798,178.2415,299.5404" style="stroke:#000000;stroke-width:1.0;"/><text fill="#000000" font-family="sans-serif" font-size="13" lengthAdjust="spacing" textLength="114" x="190.94" y="301.4951">entrega un cliente a</text></g><!--MD5=[1d3ac3990f9c116bd0a2abc3511a60d5]
link Cliente to Caja--><g id="link_Cliente_Caja"><path codeLine="17" d="M133.7,141.12 C126.44,160.13 113.65,196.6 108.94,229 C103.34,267.51 115.9,312.88 123.2,334.81 " fill="none" id="Cliente-Caja" style="stroke:#181818;stroke-width:1.0;"/><polygon fill="#000000" points="113.6693,248.1685,117.0936,239.2957,111.2243,238.9775,113.6693,248.1685" style="stroke:#000000;stroke-width:1.0;"/><text fill="#000000" font-family="sans-serif" font-size="13" lengthAdjust="spacing" textLength="85" x="122.94" y="248.4951">es atendido en</text></g><!--MD5=[2f057c65b6f5fceafd94fd2d327b3984]
@startuml
hide circle
hide stereotype
hide empty members

CentroComercial - - Caja:> Dispone de
CentroComercial - - Cliente:> recibe
CentroComercial - - Cajero:> contrata

'Cajero -u-|> Persona
'Cliente -u-|> Persona

Cajero - - Caja:> atiende en

Cliente - - Cola:> espera en

Cola - - Caja:> entrega un cliente a
Cliente - - Caja:> es atendido en
@enduml

@startuml
hide circle
hide stereotype
hide empty members

CentroComercial - - Caja:> Dispone de
CentroComercial - - Cliente:> recibe
CentroComercial - - Cajero:> contrata


Cajero - - Caja:> atiende en

Cliente - - Cola:> espera en

Cola - - Caja:> entrega un cliente a
Cliente - - Caja:> es atendido en
@enduml

PlantUML version 1.2022.7(Mon Aug 22 19:01:30 CEST 2022)
(GPL source distribution)
Java Runtime: OpenJDK Runtime Environment
JVM: OpenJDK 64-Bit Server VM
Default Encoding: Cp1252
Language: es
Country: ES
--></g></svg>