<?xml version="1.0" encoding="UTF-8" standalone="no"?><svg xmlns="http://www.w3.org/2000/svg" xmlns:xlink="http://www.w3.org/1999/xlink" contentStyleType="text/css" height="433px" preserveAspectRatio="none" style="width:616px;height:433px;background:#FFFFFF;" version="1.1" viewBox="0 0 616 433" width="616px" zoomAndPan="magnify"><defs/><g><!--MD5=[3037db1e9c9d007a7ccf6f456d672d7d]
cluster centroComercial--><g id="cluster_centroComercial"><path d="M19.5,258 L227.5,258 A12.5,12.5 0 0 1 240,270.5 L240,285.6094 L7,285.6094 L7,270.5 A12.5,12.5 0 0 1 19.5,258 " fill="#F1F1F1" style="stroke:#F1F1F1;stroke-width:1.0;"/><rect fill="none" height="102" rx="12.5" ry="12.5" style="stroke:#181818;stroke-width:0.5;" width="233" x="7" y="258"/><line style="stroke:#181818;stroke-width:0.5;" x1="7" x2="240" y1="285.6094" y2="285.6094"/><text fill="#000000" font-family="sans-serif" font-size="14" lengthAdjust="spacing" textLength="103" x="72" y="276.5332">centroComercial</text></g><g id="centroComercial.abierto"><rect fill="#F1F1F1" height="50" rx="12.5" ry="12.5" style="stroke:#181818;stroke-width:0.5;" width="64" x="23" y="294"/><line style="stroke:#181818;stroke-width:0.5;" x1="23" x2="87" y1="321.6094" y2="321.6094"/><text fill="#000000" font-family="sans-serif" font-size="14" lengthAdjust="spacing" textLength="44" x="33" y="313.5332">abierto</text></g><ellipse cx="55" cy="109" fill="#222222" rx="10" ry="10" style="stroke:none;stroke-width:1.0;"/><ellipse cx="55" cy="417" fill="none" rx="10" ry="10" style="stroke:#222222;stroke-width:1.0;"/><ellipse cx="55.5" cy="417.5" fill="#222222" rx="6" ry="6" style="stroke:none;stroke-width:1.0;"/><path d="M113,7 L422.59,7 A12.5,12.5 0 0 1 435.09,19.5 L435.09,34.6094 L100.5,34.6094 L100.5,19.5 A12.5,12.5 0 0 1 113,7 " fill="#F1F1F1" style="stroke:#F1F1F1;stroke-width:1.0;"/><rect fill="none" height="203.6094" rx="12.5" ry="12.5" style="stroke:#181818;stroke-width:0.5;" width="334.59" x="100.5" y="7"/><line style="stroke:#181818;stroke-width:0.5;" x1="100.5" x2="435.09" y1="34.6094" y2="34.6094"/><text fill="#000000" font-family="sans-serif" font-size="14" lengthAdjust="spacing" textLength="26" x="254.795" y="26.5332">cola</text><g id="cola.cerrada"><rect fill="#F1F1F1" height="50" rx="12.5" ry="12.5" style="stroke:#181818;stroke-width:0.5;" width="69" x="173.59" y="46.6094"/><line style="stroke:#181818;stroke-width:0.5;" x1="173.59" x2="242.59" y1="74.2188" y2="74.2188"/><text fill="#000000" font-family="sans-serif" font-size="14" lengthAdjust="spacing" textLength="49" x="183.59" y="66.1426">cerrada</text></g><g id="cola.recibiendo"><rect fill="#F1F1F1" height="50" rx="12.5" ry="12.5" style="stroke:#181818;stroke-width:0.5;" width="86" x="165.09" y="150.6094"/><line style="stroke:#181818;stroke-width:0.5;" x1="165.09" x2="251.09" y1="178.2188" y2="178.2188"/><text fill="#000000" font-family="sans-serif" font-size="14" lengthAdjust="spacing" textLength="66" x="175.09" y="170.1426">recibiendo</text></g><!--MD5=[f86ce661cf4360fa113dab62b4b933b6]
link cerrada to recibiendo--><g id="link_cerrada_recibiendo"><path d="M173.47,80.5794 C155.41,86.6894 134.89,97.1294 124.09,114.6094 C111.5,134.9894 134.96,150.4494 160.26,160.5594 " fill="none" id="cerrada-to-recibiendo" style="stroke:#181818;stroke-width:1.0;"/><polygon fill="#181818" points="165,162.3894,158.0473,155.4137,160.3362,160.5868,155.1632,162.8758,165,162.3894" style="stroke:#181818;stroke-width:1.0;"/><text fill="#000000" font-family="sans-serif" font-size="13" lengthAdjust="spacing" textLength="145" x="125.09" y="129.1045">[centroComercial.abierto]</text></g><!--MD5=[7f4ec076e512b76025dd3d48b40624da]
link recibiendo to recibiendo--><g id="link_recibiendo_recibiendo"><path d="M251.13,166.0294 C261.45,166.7794 269.09,169.9694 269.09,175.6094 C269.09,180.2794 263.85,183.2694 256.19,184.5894 " fill="none" id="recibiendo-to-recibiendo" style="stroke:#181818;stroke-width:1.0;"/><polygon fill="#181818" points="251.13,185.1894,260.5372,188.1057,256.0955,184.6027,259.5985,180.161,251.13,185.1894" style="stroke:#181818;stroke-width:1.0;"/><text fill="#000000" font-family="sans-serif" font-size="13" lengthAdjust="spacing" textLength="145" x="275.09" y="181.1045">[centroComercial.abierto]</text></g><!--MD5=[33dee3a847e4a971040b31ffdfb6f8ac]
link recibiendo to cerrada--><g id="link_recibiendo_cerrada"><path d="M251.43,154.2594 C267.2,143.8294 279.36,130.0594 271.09,114.6094 C265.71,104.5594 256.75,96.4994 247.25,90.2294 " fill="none" id="recibiendo-to-cerrada" style="stroke:#181818;stroke-width:1.0;"/><polygon fill="#181818" points="242.86,87.4794,248.3646,95.6464,247.0976,90.1332,252.6107,88.8662,242.86,87.4794" style="stroke:#181818;stroke-width:1.0;"/><text fill="#000000" font-family="sans-serif" font-size="13" lengthAdjust="spacing" textLength="149" x="274.09" y="129.1045">[centroComercial.cerrado]</text></g><path d="M483.5,16 L590.2955,16 A12.5,12.5 0 0 1 602.7955,28.5 L602.7955,43.6094 L471,43.6094 L471,28.5 A12.5,12.5 0 0 1 483.5,16 " fill="#F1F1F1" style="stroke:#F1F1F1;stroke-width:1.0;"/><rect fill="none" height="185.6094" rx="12.5" ry="12.5" style="stroke:#181818;stroke-width:0.5;" width="131.7955" x="471" y="16"/><line style="stroke:#181818;stroke-width:0.5;" x1="471" x2="602.7955" y1="43.6094" y2="43.6094"/><text fill="#000000" font-family="sans-serif" font-size="14" lengthAdjust="spacing" textLength="26" x="523.8978" y="35.5332">caja</text><g id="caja.ociosa"><rect fill="#F1F1F1" height="50" rx="12.5" ry="12.5" style="stroke:#181818;stroke-width:0.5;" width="61" x="498" y="55.6094"/><line style="stroke:#181818;stroke-width:0.5;" x1="498" x2="559" y1="83.2188" y2="83.2188"/><text fill="#000000" font-family="sans-serif" font-size="14" lengthAdjust="spacing" textLength="41" x="508" y="75.1426">ociosa</text></g><g id="caja.atendiendo"><rect fill="#F1F1F1" height="50" rx="12.5" ry="12.5" style="stroke:#181818;stroke-width:0.5;" width="91" x="483" y="141.6094"/><line style="stroke:#181818;stroke-width:0.5;" x1="483" x2="574" y1="169.2188" y2="169.2188"/><text fill="#000000" font-family="sans-serif" font-size="14" lengthAdjust="spacing" textLength="71" x="493" y="161.1426">atendiendo</text></g><!--MD5=[9729a586fd3fb7b60ab5ad2d9f6539fa]
link ociosa to atendiendo--><g id="link_ociosa_atendiendo"><path d="M522.31,105.9094 C521.67,115.3994 521.58,126.3594 522.03,136.2894 " fill="none" id="ociosa-to-atendiendo" style="stroke:#181818;stroke-width:1.0;"/><polygon fill="#181818" points="522.32,141.3694,525.8248,132.1652,522.0482,136.3768,517.8367,132.6001,522.32,141.3694" style="stroke:#181818;stroke-width:1.0;"/></g><!--MD5=[1ace4fcfe17b00d5a6caf81766329dda]
link atendiendo to atendiendo--><g id="link_atendiendo_atendiendo"><path d="M574.16,150.8794 C584.47,152.2994 592,157.5394 592,166.6094 C592,174.1194 586.83,179.0094 579.21,181.2694 " fill="none" id="atendiendo-to-atendiendo" style="stroke:#181818;stroke-width:1.0;"/><polygon fill="#181818" points="574.16,182.3394,583.7955,184.3783,579.0505,181.2985,582.1302,176.5535,574.16,182.3394" style="stroke:#181818;stroke-width:1.0;"/></g><!--MD5=[f505f7ea793e8719eea2a8b28da242df]
link atendiendo to ociosa--><g id="link_atendiendo_ociosa"><path d="M534.68,141.3694 C535.33,131.8794 535.42,120.9194 534.97,110.9894 " fill="none" id="atendiendo-to-ociosa" style="stroke:#181818;stroke-width:1.0;"/><polygon fill="#181818" points="534.69,105.9094,531.2115,115.1235,534.9761,110.9012,539.1984,114.6658,534.69,105.9094" style="stroke:#181818;stroke-width:1.0;"/></g><!--MD5=[35c6bb45a9ad12dc33b783c9b6054b33]
link abierto to abierto--><g id="link_abierto_abierto"><path d="M87.06,309.04 C105.2,307.09 122,310.41 122,319 C122,326.78 108.2,330.24 92.11,329.37 " fill="none" id="abierto-to-abierto" style="stroke:#181818;stroke-width:1.0;"/><polygon fill="#181818" points="87.06,328.96,95.7113,333.6669,92.044,329.3599,96.3511,325.6926,87.06,328.96" style="stroke:#181818;stroke-width:1.0;"/><text fill="#000000" font-family="sans-serif" font-size="13" lengthAdjust="spacing" textLength="107" x="128" y="324.4951">[Dentro de horario]</text></g><!--MD5=[c1c0cd18129ca435daf3d30a6905b901]
link *start to abierto--><g id="link_*start_abierto"><path d="M55,119.21 C55,148.56 55,240.83 55,288.64 " fill="none" id="*start-to-abierto" style="stroke:#181818;stroke-width:1.0;"/><polygon fill="#181818" points="55,293.68,59,284.68,55,288.68,51,284.68,55,293.68" style="stroke:#181818;stroke-width:1.0;"/></g><!--MD5=[7c9f1ce05b1ff811aadbe80674dbfdb4]
link abierto to *end--><g id="link_abierto_*end"><path d="M55,344.22 C55,362.23 55,386.21 55,401.38 " fill="none" id="abierto-to-*end" style="stroke:#181818;stroke-width:1.0;"/><polygon fill="#181818" points="55,406.54,59,397.54,55,401.54,51,397.54,55,406.54" style="stroke:#181818;stroke-width:1.0;"/></g><!--MD5=[5abb8ce98a84d736ac18296b21659059]
@startuml
state centroComercial {

abierto - -> abierto : [Dentro de horario]

}
[*] - -> abierto
abierto - -> [*]


state cola {
    cerrada - -> recibiendo: [centroComercial.abierto]
    recibiendo - -> recibiendo: [centroComercial.abierto]
    recibiendo - -> cerrada: [centroComercial.cerrado]
}

state caja {
    ociosa - -> atendiendo
    atendiendo - -> atendiendo
    atendiendo - -> ociosa

}
@enduml

PlantUML version 1.2022.7(Mon Aug 22 19:01:30 CEST 2022)
(GPL source distribution)
Java Runtime: OpenJDK Runtime Environment
JVM: OpenJDK 64-Bit Server VM
Default Encoding: Cp1252
Language: es
Country: ES
--></g></svg>