<?xml version="1.0" encoding="UTF-8" standalone="no"?><svg xmlns="http://www.w3.org/2000/svg" xmlns:xlink="http://www.w3.org/1999/xlink" contentStyleType="text/css" height="388px" preserveAspectRatio="none" style="width:982px;height:388px;background:#FFFFFF;" version="1.1" viewBox="0 0 982 388" width="982px" zoomAndPan="magnify"><defs/><g><g id="elem_sc"><rect fill="#F1F1F1" height="36.2969" style="stroke:#181818;stroke-width:0.5;" width="136" x="400" y="7"/><text fill="#000000" font-family="sans-serif" font-size="14" lengthAdjust="spacing" textLength="122" x="407" y="21.9951">: ShoppingCenter</text><line style="stroke:#181818;stroke-width:0.5;" x1="401" x2="535" y1="27.2969" y2="27.2969"/></g><g id="elem_customer1"><rect fill="#F1F1F1" height="36.2969" style="stroke:#181818;stroke-width:0.5;" width="166" x="107" y="120"/><text fill="#000000" font-family="sans-serif" font-size="14" lengthAdjust="spacing" textLength="152" x="114" y="134.9951">customer1: Customer</text><line style="stroke:#181818;stroke-width:0.5;" x1="108" x2="272" y1="140.2969" y2="140.2969"/></g><g id="elem_customer2"><rect fill="#F1F1F1" height="36.2969" style="stroke:#181818;stroke-width:0.5;" width="166" x="308" y="120"/><text fill="#000000" font-family="sans-serif" font-size="14" lengthAdjust="spacing" textLength="152" x="315" y="134.9951">customer2: Customer</text><line style="stroke:#181818;stroke-width:0.5;" x1="309" x2="473" y1="140.2969" y2="140.2969"/></g><g id="elem_customer3"><rect fill="#F1F1F1" height="36.2969" style="stroke:#181818;stroke-width:0.5;" width="166" x="509" y="120"/><text fill="#000000" font-family="sans-serif" font-size="14" lengthAdjust="spacing" textLength="152" x="516" y="134.9951">customer3: Customer</text><line style="stroke:#181818;stroke-width:0.5;" x1="510" x2="674" y1="140.2969" y2="140.2969"/></g><g id="elem_customerN"><rect fill="#F1F1F1" height="36.2969" style="stroke:#181818;stroke-width:0.5;" width="167" x="710.5" y="120"/><text fill="#000000" font-family="sans-serif" font-size="14" lengthAdjust="spacing" textLength="153" x="717.5" y="134.9951">customerN: Customer</text><line style="stroke:#181818;stroke-width:0.5;" x1="711.5" x2="876.5" y1="140.2969" y2="140.2969"/></g><g id="elem_queue"><rect fill="#F1F1F1" height="36.2969" style="stroke:#181818;stroke-width:0.5;" width="115" x="433.5" y="233"/><text fill="#000000" font-family="sans-serif" font-size="14" lengthAdjust="spacing" textLength="101" x="440.5" y="247.9951">queue: Queue</text><line style="stroke:#181818;stroke-width:0.5;" x1="434.5" x2="547.5" y1="253.2969" y2="253.2969"/></g><g id="elem_cr1"><rect fill="#F1F1F1" height="36.2969" style="stroke:#181818;stroke-width:0.5;" width="216" x="7" y="346"/><text fill="#000000" font-family="sans-serif" font-size="14" lengthAdjust="spacing" textLength="202" x="14" y="360.9951">cashRegister1: CashRegister</text><line style="stroke:#181818;stroke-width:0.5;" x1="8" x2="222" y1="366.2969" y2="366.2969"/></g><g id="elem_cr2"><rect fill="#F1F1F1" height="36.2969" style="stroke:#181818;stroke-width:0.5;" width="216" x="258" y="346"/><text fill="#000000" font-family="sans-serif" font-size="14" lengthAdjust="spacing" textLength="202" x="265" y="360.9951">cashRegister2: CashRegister</text><line style="stroke:#181818;stroke-width:0.5;" x1="259" x2="473" y1="366.2969" y2="366.2969"/></g><g id="elem_cr3"><rect fill="#F1F1F1" height="36.2969" style="stroke:#181818;stroke-width:0.5;" width="216" x="509" y="346"/><text fill="#000000" font-family="sans-serif" font-size="14" lengthAdjust="spacing" textLength="202" x="516" y="360.9951">cashRegister3: CashRegister</text><line style="stroke:#181818;stroke-width:0.5;" x1="510" x2="724" y1="366.2969" y2="366.2969"/></g><g id="elem_cr4"><rect fill="#F1F1F1" height="36.2969" style="stroke:#181818;stroke-width:0.5;" width="216" x="760" y="346"/><text fill="#000000" font-family="sans-serif" font-size="14" lengthAdjust="spacing" textLength="202" x="767" y="360.9951">cashRegister4: CashRegister</text><line style="stroke:#181818;stroke-width:0.5;" x1="761" x2="975" y1="366.2969" y2="366.2969"/></g><!--MD5=[51adc8db671e153cd385756f21bd0420]
link sc to customer1--><g id="link_sc_customer1"><path codeLine="8" d="M424.73,43.01 C402.15,51.91 374.07,63 349,73 C309.34,88.82 264.18,107.01 232.15,119.95 " fill="none" id="sc-customer1" style="stroke:#181818;stroke-width:1.0;"/><polygon fill="#000000" points="349.3569,83.4214,358.8468,82.7948,356.666,77.3365,349.3569,83.4214" style="stroke:#000000;stroke-width:1.0;"/><text fill="#000000" font-family="sans-serif" font-size="13" lengthAdjust="spacing" textLength="53" x="363" y="86.0669">receives</text></g><!--MD5=[71e38c1d975e4a2d13210d6cdf86bec7]
link sc to customer2--><g id="link_sc_customer2"><path codeLine="9" d="M455.97,43.34 C441.5,64.2 417.37,98.98 402.95,119.78 " fill="none" id="sc-customer2" style="stroke:#181818;stroke-width:1.0;"/><polygon fill="#000000" points="437.1503,85.6749,444.7203,79.9176,439.8906,76.5676,437.1503,85.6749" style="stroke:#000000;stroke-width:1.0;"/><text fill="#000000" font-family="sans-serif" font-size="13" lengthAdjust="spacing" textLength="53" x="449" y="86.0669">receives</text></g><!--MD5=[7b87e9845965d8ba2857aff308760d62]
link sc to customer3--><g id="link_sc_customer3"><path codeLine="10" d="M487.1,43.1 C510.34,63.9 549.34,98.81 572.67,119.7 " fill="none" id="sc-customer3" style="stroke:#181818;stroke-width:1.0;"/><polygon fill="#000000" points="546.7254,84.9013,541.9463,76.6787,538.0259,81.0582,546.7254,84.9013" style="stroke:#000000;stroke-width:1.0;"/><text fill="#000000" font-family="sans-serif" font-size="13" lengthAdjust="spacing" textLength="53" x="552" y="86.0669">receives</text></g><!--MD5=[5800e3d44f4cb8c8c45fb3a0d3a3ee24]
link sc to customerN--><g id="link_sc_customerN"><path codeLine="11" d="M522.21,43.02 C549.76,51.78 583.73,62.75 614,73 C659.39,88.37 710.89,106.78 747.14,119.9 " fill="none" id="sc-customerN" style="stroke:#181818;stroke-width:1.0;"/><polygon fill="#000000" points="668.7313,83.1835,661.1228,77.4772,659.2218,83.0391,668.7313,83.1835" style="stroke:#000000;stroke-width:1.0;"/><text fill="#000000" font-family="sans-serif" font-size="13" lengthAdjust="spacing" textLength="53" x="673" y="86.0669">receives</text></g><!--MD5=[7e2ae40cf55e9904443b13d4a2a97151]
link customer1 to queue--><g id="link_customer1_queue"><path codeLine="15" d="M236.37,156.1 C292.94,176.96 387.99,212.01 444.58,232.88 " fill="none" id="customer1-queue" style="stroke:#181818;stroke-width:1.0;"/><polygon fill="#000000" points="368.6912,196.2963,361.2216,190.4094,359.1879,195.9243,368.6912,196.2963" style="stroke:#000000;stroke-width:1.0;"/><text fill="#000000" font-family="sans-serif" font-size="13" lengthAdjust="spacing" textLength="47" x="373" y="199.0669">waits in</text></g><!--MD5=[396d30e7c37a5c8c6587d67166769a9f]
link customer2 to queue--><g id="link_customer2_queue"><path codeLine="16" d="M406.62,156.34 C425.41,177.2 456.75,211.98 475.48,232.78 " fill="none" id="customer2-queue" style="stroke:#181818;stroke-width:1.0;"/><polygon fill="#000000" points="455.3465,198.2813,451.4762,189.5939,447.109,193.528,455.3465,198.2813" style="stroke:#000000;stroke-width:1.0;"/><text fill="#000000" font-family="sans-serif" font-size="13" lengthAdjust="spacing" textLength="47" x="461" y="199.0669">waits in</text></g><!--MD5=[dc57ca06a9f188cdba757d190a06ca21]
link customer3 to queue--><g id="link_customer3_queue"><path codeLine="17" d="M576.22,156.34 C557.24,177.2 525.6,211.98 506.67,232.78 " fill="none" id="customer3-queue" style="stroke:#181818;stroke-width:1.0;"/><polygon fill="#000000" points="549.6351,198.2647,557.8961,193.5523,553.5485,189.5966,549.6351,198.2647" style="stroke:#000000;stroke-width:1.0;"/><text fill="#000000" font-family="sans-serif" font-size="13" lengthAdjust="spacing" textLength="47" x="562" y="199.0669">waits in</text></g><!--MD5=[029b5bc331ec112d699a51313dab94e4]
link customerN to queue--><g id="link_customerN_queue"><path codeLine="18" d="M747.32,156.1 C690.38,176.96 594.7,212.01 537.73,232.88 " fill="none" id="customerN-queue" style="stroke:#181818;stroke-width:1.0;"/><polygon fill="#000000" points="661.3051,196.2863,670.8092,195.9346,668.7873,190.4154,661.3051,196.2863" style="stroke:#000000;stroke-width:1.0;"/><text fill="#000000" font-family="sans-serif" font-size="13" lengthAdjust="spacing" textLength="47" x="675" y="199.0669">waits in</text></g><!--MD5=[238934ccc7558514be0ef38693195d65]
link queue to cr1--><g id="link_queue_cr1"><path codeLine="25" d="M433.41,261.06 C387.93,268.95 323.15,281.82 268,299 C226.63,311.89 181.02,331.74 150.46,345.92 " fill="none" id="queue-cr1" style="stroke:#181818;stroke-width:1.0;"/><polygon fill="#000000" points="268.2108,309.0028,277.7188,309.2194,276.0303,303.5893,268.2108,309.0028" style="stroke:#000000;stroke-width:1.0;"/><text fill="#000000" font-family="sans-serif" font-size="13" lengthAdjust="spacing" textLength="126" x="282" y="312.0669">delivers a customer</text></g><!--MD5=[3a5942d966b0adff31404374a3843cb1]
link queue to cr2--><g id="link_queue_cr2"><path codeLine="26" d="M469.17,269 C458.15,277.75 444.67,288.72 433,299 C415.61,314.3 396.59,332.64 383.27,345.76 " fill="none" id="queue-cr2" style="stroke:#181818;stroke-width:1.0;"/><polygon fill="#000000" points="434.2717,310.898,442.9745,307.0625,439.058,302.6796,434.2717,310.898" style="stroke:#000000;stroke-width:1.0;"/><text fill="#000000" font-family="sans-serif" font-size="13" lengthAdjust="spacing" textLength="126" x="447" y="312.0669">delivers a customer</text></g><!--MD5=[4f754098df6d48dbf36f9441be0975e5]
link queue to cr3--><g id="link_queue_cr3"><path codeLine="27" d="M532.9,269.03 C548.27,276.65 565.05,286.71 578,299 C592.06,312.35 602.97,331.84 609.62,345.8 " fill="none" id="queue-cr3" style="stroke:#181818;stroke-width:1.0;"/><polygon fill="#000000" points="600.5344,311.1031,596.2194,302.6277,592.0618,306.7826,600.5344,311.1031" style="stroke:#000000;stroke-width:1.0;"/><text fill="#000000" font-family="sans-serif" font-size="13" lengthAdjust="spacing" textLength="126" x="606" y="312.0669">delivers a customer</text></g><!--MD5=[d3bfd9ca9848789fda38d7cef58bcb97]
link queue to cr4--><g id="link_queue_cr4"><path codeLine="28" d="M548.51,258.15 C599.95,264.74 676.89,277.31 741,299 C776.55,311.03 814.66,331.34 839.75,345.85 " fill="none" id="queue-cr4" style="stroke:#181818;stroke-width:1.0;"/><polygon fill="#000000" points="789.7876,309.0081,781.9741,303.586,780.2793,309.2142,789.7876,309.0081" style="stroke:#000000;stroke-width:1.0;"/><text fill="#000000" font-family="sans-serif" font-size="13" lengthAdjust="spacing" textLength="126" x="794" y="312.0669">delivers a customer</text></g><!--MD5=[3f98c7507c3d529663ec4c195bbd92e0]
@startuml
object ": ShoppingCenter" as sc

object "customer1: Customer" as customer1
object "customer2: Customer" as customer2
object "customer3: Customer" as customer3
object "customerN: Customer" as customerN

sc - - customer1:> receives
sc - - customer2:> receives
sc - - customer3:> receives
sc - - customerN:> receives

object "queue: Queue" as queue

customer1 - - queue:> waits in
customer2 - - queue:> waits in
customer3 - - queue:> waits in
customerN - - queue:> waits in

object "cashRegister1: CashRegister" as cr1
object "cashRegister2: CashRegister" as cr2
object "cashRegister3: CashRegister" as cr3
object "cashRegister4: CashRegister" as cr4

queue - - cr1:> delivers a customer
queue - - cr2:> delivers a customer
queue - - cr3:> delivers a customer
queue - - cr4:> delivers a customer
@enduml

PlantUML version 1.2022.7(Mon Aug 22 19:01:30 CEST 2022)
(GPL source distribution)
Java Runtime: OpenJDK Runtime Environment
JVM: OpenJDK 64-Bit Server VM
Default Encoding: UTF-8
Language: es
Country: ES
--></g></svg>