<?xml version="1.0" encoding="UTF-8" standalone="no"?><svg xmlns="http://www.w3.org/2000/svg" xmlns:xlink="http://www.w3.org/1999/xlink" contentStyleType="text/css" height="429px" preserveAspectRatio="none" style="width:826px;height:429px;background:#FFFFFF;" version="1.1" viewBox="0 0 826 429" width="826px" zoomAndPan="magnify"><defs/><g><!--MD5=[0693c708fe4b85a4a1a6ae01913fa5e5]
cluster ShoppingCenter--><g id="cluster_ShoppingCenter"><path d="M19.5,255 L265.5,255 A12.5,12.5 0 0 1 278,267.5 L278,281.2969 L7,281.2969 L7,267.5 A12.5,12.5 0 0 1 19.5,255 " fill="#F1F1F1" style="stroke:#F1F1F1;stroke-width:1.0;"/><rect fill="none" height="101" rx="12.5" ry="12.5" style="stroke:#181818;stroke-width:0.5;" width="271" x="7" y="255"/><line style="stroke:#181818;stroke-width:0.5;" x1="7" x2="278" y1="281.2969" y2="281.2969"/><text fill="#000000" font-family="sans-serif" font-size="14" lengthAdjust="spacing" textLength="113" x="86" y="271.9951">ShoppingCenter</text></g><g id="ShoppingCenter.open"><rect fill="#F1F1F1" height="50" rx="12.5" ry="12.5" style="stroke:#181818;stroke-width:0.5;" width="56" x="23" y="290"/><line style="stroke:#181818;stroke-width:0.5;" x1="23" x2="79" y1="316.2969" y2="316.2969"/><text fill="#000000" font-family="sans-serif" font-size="14" lengthAdjust="spacing" textLength="36" x="33" y="307.9951">open</text></g><ellipse cx="51" cy="107.5" fill="#222222" rx="10" ry="10" style="stroke:none;stroke-width:1.0;"/><ellipse cx="51" cy="413" fill="none" rx="10" ry="10" style="stroke:#222222;stroke-width:1.0;"/><ellipse cx="51.5" cy="413.5" fill="#222222" rx="6" ry="6" style="stroke:none;stroke-width:1.0;"/><path d="M108.5,7 L429.77,7 A12.5,12.5 0 0 1 442.27,19.5 L442.27,33.2969 L96,33.2969 L96,19.5 A12.5,12.5 0 0 1 108.5,7 " fill="#F1F1F1" style="stroke:#F1F1F1;stroke-width:1.0;"/><rect fill="none" height="201.2969" rx="12.5" ry="12.5" style="stroke:#181818;stroke-width:0.5;" width="346.27" x="96" y="7"/><line style="stroke:#181818;stroke-width:0.5;" x1="96" x2="442.27" y1="33.2969" y2="33.2969"/><text fill="#000000" font-family="sans-serif" font-size="14" lengthAdjust="spacing" textLength="47" x="245.635" y="24.9951">Queue</text><g id="Queue.closed"><rect fill="#F1F1F1" height="50" rx="12.5" ry="12.5" style="stroke:#181818;stroke-width:0.5;" width="66" x="173.27" y="45.2969"/><line style="stroke:#181818;stroke-width:0.5;" x1="173.27" x2="239.27" y1="71.5938" y2="71.5938"/><text fill="#000000" font-family="sans-serif" font-size="14" lengthAdjust="spacing" textLength="46" x="183.27" y="63.292">closed</text></g><g id="Queue.receiving"><rect fill="#F1F1F1" height="50" rx="12.5" ry="12.5" style="stroke:#181818;stroke-width:0.5;" width="82" x="165.27" y="148.2969"/><line style="stroke:#181818;stroke-width:0.5;" x1="165.27" x2="247.27" y1="174.5938" y2="174.5938"/><text fill="#000000" font-family="sans-serif" font-size="14" lengthAdjust="spacing" textLength="62" x="175.27" y="166.292">receiving</text></g><!--MD5=[e44cc825da3b545ac83f8280131c7927]
link closed to receiving--><g id="link_closed_receiving"><path d="M173.03,78.3569 C154.05,84.2669 131.8,94.8369 120.27,113.2969 C107,134.5469 133.21,150.0669 160.09,159.8369 " fill="none" id="closed-to-receiving" style="stroke:#181818;stroke-width:1.0;"/><polygon fill="#181818" points="165.11,161.5969,157.9394,154.8454,160.3914,159.9432,155.2936,162.3952,165.11,161.5969" style="stroke:#181818;stroke-width:1.0;"/><text fill="#000000" font-family="sans-serif" font-size="13" lengthAdjust="spacing" textLength="149" x="121.27" y="126.3638">[ShoppingCenter.open]</text></g><!--MD5=[93b4d18729738aa8ef7643860fae8044]
link receiving to receiving--><g id="link_receiving_receiving"><path d="M247.36,164.0469 C257.61,164.6969 265.27,167.7769 265.27,173.2969 C265.27,177.8669 260.02,180.7669 252.39,181.9969 " fill="none" id="receiving-to-receiving" style="stroke:#181818;stroke-width:1.0;"/><polygon fill="#181818" points="247.36,182.5469,256.741,185.5463,252.3305,182.0041,255.8726,177.5936,247.36,182.5469" style="stroke:#181818;stroke-width:1.0;"/><text fill="#000000" font-family="sans-serif" font-size="13" lengthAdjust="spacing" textLength="149" x="271.27" y="177.8638">[ShoppingCenter.open]</text></g><!--MD5=[41122eb9f34baa7f41066b9b90838111]
link receiving to closed--><g id="link_receiving_closed"><path d="M247.5,154.6569 C265.34,144.2569 280.31,129.8969 271.27,113.2969 C265.2,102.1469 254.76,93.5069 243.99,87.0369 " fill="none" id="receiving-to-closed" style="stroke:#181818;stroke-width:1.0;"/><polygon fill="#181818" points="239.37,84.3969,245.2137,92.3247,243.7156,86.8699,249.1705,85.3718,239.37,84.3969" style="stroke:#181818;stroke-width:1.0;"/><text fill="#000000" font-family="sans-serif" font-size="13" lengthAdjust="spacing" textLength="158" x="274.27" y="126.3638">[ShoppingCenter.closed]</text></g><path d="M489.5,7 L800.25,7 A12.5,12.5 0 0 1 812.75,19.5 L812.75,33.2969 L477,33.2969 L477,19.5 A12.5,12.5 0 0 1 489.5,7 " fill="#F1F1F1" style="stroke:#F1F1F1;stroke-width:1.0;"/><rect fill="none" height="201.2969" rx="12.5" ry="12.5" style="stroke:#181818;stroke-width:0.5;" width="335.75" x="477" y="7"/><line style="stroke:#181818;stroke-width:0.5;" x1="477" x2="812.75" y1="33.2969" y2="33.2969"/><text fill="#000000" font-family="sans-serif" font-size="14" lengthAdjust="spacing" textLength="93" x="598.375" y="24.9951">CashRegister</text><g id="CashRegister.idle"><rect fill="#F1F1F1" height="50" rx="12.5" ry="12.5" style="stroke:#181818;stroke-width:0.5;" width="50" x="565.75" y="45.2969"/><line style="stroke:#181818;stroke-width:0.5;" x1="565.75" x2="615.75" y1="71.5938" y2="71.5938"/><text fill="#000000" font-family="sans-serif" font-size="14" lengthAdjust="spacing" textLength="24" x="578.75" y="63.292">idle</text></g><g id="CashRegister.serving"><rect fill="#F1F1F1" height="50" rx="12.5" ry="12.5" style="stroke:#181818;stroke-width:0.5;" width="70" x="555.75" y="148.2969"/><line style="stroke:#181818;stroke-width:0.5;" x1="555.75" x2="625.75" y1="174.5938" y2="174.5938"/><text fill="#000000" font-family="sans-serif" font-size="14" lengthAdjust="spacing" textLength="50" x="565.75" y="166.292">serving</text></g><!--MD5=[a2e6d52339b301de277190a8ba10c26e]
link idle to serving--><g id="link_idle_serving"><path d="M565.37,75.7869 C544.55,80.9469 516.39,91.6769 502.75,113.2969 C488,136.6769 520.91,152.9469 550.59,162.3869 " fill="none" id="idle-to-serving" style="stroke:#181818;stroke-width:1.0;"/><polygon fill="#181818" points="555.7,163.9569,548.273,157.4885,550.9208,162.4874,545.9219,165.1353,555.7,163.9569" style="stroke:#181818;stroke-width:1.0;"/><text fill="#000000" font-family="sans-serif" font-size="13" lengthAdjust="spacing" textLength="154" x="503.75" y="126.3638">[Queue.customers&gt;=1]</text></g><!--MD5=[153233319dcb8a1ff06e4c0e1029153c]
link serving to serving--><g id="link_serving_serving"><path d="M625.92,163.9569 C635.99,164.3269 643.75,167.4369 643.75,173.2969 C643.75,178.0569 638.63,181.0069 631.3,182.1369 " fill="none" id="serving-to-serving" style="stroke:#181818;stroke-width:1.0;"/><polygon fill="#181818" points="625.92,182.6369,635.2485,185.796,630.899,182.179,634.5159,177.8296,625.92,182.6369" style="stroke:#181818;stroke-width:1.0;"/><text fill="#000000" font-family="sans-serif" font-size="13" lengthAdjust="spacing" textLength="141" x="649.75" y="177.8638">[customer.items&gt;=0]</text></g><!--MD5=[0c67e6ce08e628c516be0da733da7df5]
link serving to idle--><g id="link_serving_idle"><path d="M626.09,158.9269 C647.77,148.4869 669.49,132.5469 658.75,113.2969 C650.55,98.5969 634.86,88.3969 620.61,81.7369 " fill="none" id="serving-to-idle" style="stroke:#181818;stroke-width:1.0;"/><polygon fill="#181818" points="615.85,79.6069,622.4349,86.9307,620.4149,81.6468,625.6988,79.6268,615.85,79.6069" style="stroke:#181818;stroke-width:1.0;"/><text fill="#000000" font-family="sans-serif" font-size="13" lengthAdjust="spacing" textLength="141" x="661.75" y="126.3638">[customer.items==0]</text></g><!--MD5=[57034346470d6dbc31e8ae052be8f7c4]
link open to open--><g id="link_open_open"><path d="M79.18,305.29 C96.97,302.85 114,306.09 114,315 C114,323.01 100.26,326.44 84.56,325.28 " fill="none" id="open-to-open" style="stroke:#181818;stroke-width:1.0;"/><polygon fill="#181818" points="79.18,324.71,87.7067,329.6391,84.152,325.2386,88.5525,321.684,79.18,324.71" style="stroke:#181818;stroke-width:1.0;"/><text fill="#000000" font-family="sans-serif" font-size="13" lengthAdjust="spacing" textLength="153" x="120" y="319.5669">[Within operating hours]</text></g><!--MD5=[702a9602beb66d6a50358b67203041e5]
link *start to open--><g id="link_*start_open"><path d="M51,117.6 C51,146.54 51,237.39 51,284.7 " fill="none" id="*start-to-open" style="stroke:#181818;stroke-width:1.0;"/><polygon fill="#181818" points="51,289.97,55,280.97,51,284.97,47,280.97,51,289.97" style="stroke:#181818;stroke-width:1.0;"/></g><!--MD5=[3fee517768515e0d70cfb51b2d8cf75b]
link open to *end--><g id="link_open_*end"><path d="M51,340.22 C51,358.23 51,382.21 51,397.38 " fill="none" id="open-to-*end" style="stroke:#181818;stroke-width:1.0;"/><polygon fill="#181818" points="51,402.54,55,393.54,51,397.54,47,393.54,51,402.54" style="stroke:#181818;stroke-width:1.0;"/></g><!--MD5=[67cf736a91e16b7700d90eede807983c]
@startuml
state ShoppingCenter {
    open - -> open : [Within operating hours]
}

[*] - -> open
open - -> [*]

state Queue {
    closed - -> receiving: [ShoppingCenter.open]
    receiving - -> receiving: [ShoppingCenter.open]
    receiving - -> closed: [ShoppingCenter.closed]
}

state CashRegister {
    idle - -> serving:[Queue.customers>=1]
    serving - -> serving:[customer.items>=0]
    serving - -> idle:[customer.items==0]
}
@enduml

PlantUML version 1.2022.7(Mon Aug 22 19:01:30 CEST 2022)
(GPL source distribution)
Java Runtime: OpenJDK Runtime Environment
JVM: OpenJDK 64-Bit Server VM
Default Encoding: UTF-8
Language: es
Country: ES
--></g></svg>