<?xml version="1.0" encoding="UTF-8" standalone="no"?><svg xmlns="http://www.w3.org/2000/svg" xmlns:xlink="http://www.w3.org/1999/xlink" contentStyleType="text/css" height="398px" preserveAspectRatio="none" style="width:612px;height:398px;background:#FFFFFF;" version="1.1" viewBox="0 0 612 398" width="612px" zoomAndPan="magnify"><defs/><g><g id="elem_cccf"><rect fill="#F1F1F1" height="37.6094" style="stroke:#181818;stroke-width:0.5;" width="128" x="210.5" y="7"/><text fill="#000000" font-family="sans-serif" font-size="14" lengthAdjust="spacing" textLength="114" x="217.5" y="23.5332">: CentroComercial</text><line style="stroke:#181818;stroke-width:0.5;" x1="211.5" x2="337.5" y1="28.6094" y2="28.6094"/></g><g id="elem_cliente1"><rect fill="#F1F1F1" height="37.6094" style="stroke:#181818;stroke-width:0.5;" width="115" x="7" y="123"/><text fill="#000000" font-family="sans-serif" font-size="14" lengthAdjust="spacing" textLength="101" x="14" y="139.5332">cliente1: Cliente</text><line style="stroke:#181818;stroke-width:0.5;" x1="8" x2="121" y1="144.6094" y2="144.6094"/></g><g id="elem_cliente2"><rect fill="#F1F1F1" height="37.6094" style="stroke:#181818;stroke-width:0.5;" width="115" x="157" y="123"/><text fill="#000000" font-family="sans-serif" font-size="14" lengthAdjust="spacing" textLength="101" x="164" y="139.5332">cliente2: Cliente</text><line style="stroke:#181818;stroke-width:0.5;" x1="158" x2="271" y1="144.6094" y2="144.6094"/></g><g id="elem_cliente3"><rect fill="#F1F1F1" height="37.6094" style="stroke:#181818;stroke-width:0.5;" width="115" x="307" y="123"/><text fill="#000000" font-family="sans-serif" font-size="14" lengthAdjust="spacing" textLength="101" x="314" y="139.5332">cliente3: Cliente</text><line style="stroke:#181818;stroke-width:0.5;" x1="308" x2="421" y1="144.6094" y2="144.6094"/></g><g id="elem_clienteN"><rect fill="#F1F1F1" height="37.6094" style="stroke:#181818;stroke-width:0.5;" width="116" x="457.5" y="123"/><text fill="#000000" font-family="sans-serif" font-size="14" lengthAdjust="spacing" textLength="102" x="464.5" y="139.5332">clienteN: Cliente</text><line style="stroke:#181818;stroke-width:0.5;" x1="458.5" x2="572.5" y1="144.6094" y2="144.6094"/></g><g id="elem_cola"><rect fill="#F1F1F1" height="37.6094" style="stroke:#181818;stroke-width:0.5;" width="77" x="250" y="239"/><text fill="#000000" font-family="sans-serif" font-size="14" lengthAdjust="spacing" textLength="63" x="257" y="255.5332">cola: Cola</text><line style="stroke:#181818;stroke-width:0.5;" x1="251" x2="326" y1="260.6094" y2="260.6094"/></g><g id="elem_caja1"><rect fill="#F1F1F1" height="37.6094" style="stroke:#181818;stroke-width:0.5;" width="85" x="9" y="355"/><text fill="#000000" font-family="sans-serif" font-size="14" lengthAdjust="spacing" textLength="71" x="16" y="371.5332">caja1: Caja</text><line style="stroke:#181818;stroke-width:0.5;" x1="10" x2="93" y1="376.6094" y2="376.6094"/></g><g id="elem_caja2"><rect fill="#F1F1F1" height="37.6094" style="stroke:#181818;stroke-width:0.5;" width="85" x="167" y="355"/><text fill="#000000" font-family="sans-serif" font-size="14" lengthAdjust="spacing" textLength="71" x="174" y="371.5332">caja2: Caja</text><line style="stroke:#181818;stroke-width:0.5;" x1="168" x2="251" y1="376.6094" y2="376.6094"/></g><g id="elem_caja3"><rect fill="#F1F1F1" height="37.6094" style="stroke:#181818;stroke-width:0.5;" width="85" x="325" y="355"/><text fill="#000000" font-family="sans-serif" font-size="14" lengthAdjust="spacing" textLength="71" x="332" y="371.5332">caja3: Caja</text><line style="stroke:#181818;stroke-width:0.5;" x1="326" x2="409" y1="376.6094" y2="376.6094"/></g><g id="elem_caja4"><rect fill="#F1F1F1" height="37.6094" style="stroke:#181818;stroke-width:0.5;" width="85" x="483" y="355"/><text fill="#000000" font-family="sans-serif" font-size="14" lengthAdjust="spacing" textLength="71" x="490" y="371.5332">caja4: Caja</text><line style="stroke:#181818;stroke-width:0.5;" x1="484" x2="567" y1="376.6094" y2="376.6094"/></g><!--MD5=[6742c366779681770c399344e321757f]
link cccf to cliente1--><g id="link_cccf_cliente1"><path codeLine="8" d="M239.84,45.06 C222.82,53.99 202.04,64.97 183.5,75 C153.99,90.96 120.61,109.52 96.72,122.89 " fill="none" id="cccf-cliente1" style="stroke:#181818;stroke-width:1.0;"/><polygon fill="#000000" points="184.1075,86.5645,193.4577,84.8251,190.6496,79.6614,184.1075,86.5645" style="stroke:#000000;stroke-width:1.0;"/><text fill="#000000" font-family="sans-serif" font-size="13" lengthAdjust="spacing" textLength="35" x="197.5" y="89.4951">recibe</text></g><!--MD5=[0aa51b13e1d8efa814bedac1fc9fadaa]
link cccf to cliente2--><g id="link_cccf_cliente2"><path codeLine="9" d="M264.99,45.06 C253.82,66.28 235.4,101.3 224.16,122.64 " fill="none" id="cccf-cliente2" style="stroke:#181818;stroke-width:1.0;"/><polygon fill="#000000" points="251.1713,88.6004,257.9847,81.9649,252.7832,79.2274,251.1713,88.6004" style="stroke:#000000;stroke-width:1.0;"/><text fill="#000000" font-family="sans-serif" font-size="13" lengthAdjust="spacing" textLength="35" x="262.5" y="89.4951">recibe</text></g><!--MD5=[b31ceae8f6ced85bab1af414cfb50407]
link cccf to cliente3--><g id="link_cccf_cliente3"><path codeLine="10" d="M288.76,45.06 C305.51,66.28 333.16,101.3 350.01,122.64 " fill="none" id="cccf-cliente3" style="stroke:#181818;stroke-width:1.0;"/><polygon fill="#000000" points="333.5983,88.1001,330.3001,79.1798,325.6867,82.8221,333.5983,88.1001" style="stroke:#000000;stroke-width:1.0;"/><text fill="#000000" font-family="sans-serif" font-size="13" lengthAdjust="spacing" textLength="35" x="339.5" y="89.4951">recibe</text></g><!--MD5=[d6965aaf00a546aa052ae9b1493b9afb]
link cccf to clienteN--><g id="link_cccf_clienteN"><path codeLine="11" d="M316.9,45.1 C337.17,53.9 361.7,64.76 383.5,75 C416.66,90.58 453.96,109.35 480.43,122.88 " fill="none" id="cccf-clienteN" style="stroke:#181818;stroke-width:1.0;"/><polygon fill="#000000" points="430.0153,86.3234,423.1094,79.7843,420.5847,85.0923,430.0153,86.3234" style="stroke:#000000;stroke-width:1.0;"/><text fill="#000000" font-family="sans-serif" font-size="13" lengthAdjust="spacing" textLength="35" x="434.5" y="89.4951">recibe</text></g><!--MD5=[d76cbb96f6f515fa60d9306a88eb702b]
link cliente1 to cola--><g id="link_cliente1_cola"><path codeLine="15" d="M84.41,161.27 C101.07,175.78 125.98,195.78 150.5,209 C182.31,226.16 221.47,239.09 249.94,247.18 " fill="none" id="cliente1-cola" style="stroke:#181818;stroke-width:1.0;"/><polygon fill="#000000" points="159.9379,202.479,153.2635,195.7039,150.5558,200.9209,159.9379,202.479" style="stroke:#000000;stroke-width:1.0;"/><text fill="#000000" font-family="sans-serif" font-size="13" lengthAdjust="spacing" textLength="57" x="164.5" y="205.4951">espera en</text></g><!--MD5=[86f080c34d48123720fe89beaf848b33]
link cliente2 to cola--><g id="link_cliente2_cola"><path codeLine="16" d="M219.04,161.08 C223.05,174.93 229.78,194.13 239.5,209 C246.67,219.97 256.72,230.37 265.86,238.67 " fill="none" id="cliente2-cola" style="stroke:#181818;stroke-width:1.0;"/><polygon fill="#000000" points="247.0833,204.4568,244.9264,195.194,239.8938,198.2308,247.0833,204.4568" style="stroke:#000000;stroke-width:1.0;"/><text fill="#000000" font-family="sans-serif" font-size="13" lengthAdjust="spacing" textLength="57" x="253.5" y="205.4951">espera en</text></g><!--MD5=[1d42574e5b4d2a6d9411f2e5015f42ee]
link cliente3 to cola--><g id="link_cliente3_cola"><path codeLine="17" d="M352.46,161.06 C338.31,182.28 314.97,217.3 300.74,238.64 " fill="none" id="cliente3-cola" style="stroke:#181818;stroke-width:1.0;"/><polygon fill="#000000" points="333.7265,204.336,341.1891,198.4403,336.2985,195.1798,333.7265,204.336" style="stroke:#000000;stroke-width:1.0;"/><text fill="#000000" font-family="sans-serif" font-size="13" lengthAdjust="spacing" textLength="57" x="345.5" y="205.4951">espera en</text></g><!--MD5=[44971f2583593f1d538eb88770d07134]
link clienteN to cola--><g id="link_clienteN_cola"><path codeLine="18" d="M489.82,161.27 C469.26,175.41 439.35,194.89 411.5,209 C384.1,222.88 351.68,235.38 327.01,244.14 " fill="none" id="clienteN-cola" style="stroke:#181818;stroke-width:1.0;"/><polygon fill="#000000" points="442.044,202.4439,451.4381,200.96,448.7718,195.7217,442.044,202.4439" style="stroke:#000000;stroke-width:1.0;"/><text fill="#000000" font-family="sans-serif" font-size="13" lengthAdjust="spacing" textLength="57" x="455.5" y="205.4951">espera en</text></g><!--MD5=[6c06e0f209d7c90b0d59e8ec1bd2a1db]
link cola to caja1--><g id="link_cola_caja1"><path codeLine="25" d="M249.65,263.27 C195.48,269.97 101.04,284.52 75.5,307 C61.68,319.17 55.81,339.94 53.33,354.94 " fill="none" id="cola-caja1" style="stroke:#181818;stroke-width:1.0;"/><polygon fill="#000000" points="75.9696,318.2912,85.4086,317.1273,82.9218,311.8014,75.9696,318.2912" style="stroke:#000000;stroke-width:1.0;"/><text fill="#000000" font-family="sans-serif" font-size="13" lengthAdjust="spacing" textLength="103" x="89.5" y="321.4951">entrega un cliente</text></g><!--MD5=[1c73e4636e2f125cff498810fe0a9cef]
link cola to caja2--><g id="link_cola_caja2"><path codeLine="26" d="M249.86,271.67 C233.44,279.19 215.94,290.54 206.5,307 C198.17,321.53 200.32,340.95 203.7,354.96 " fill="none" id="cola-caja2" style="stroke:#181818;stroke-width:1.0;"/><polygon fill="#000000" points="209.0763,320.5491,216.0314,314.0623,210.8903,311.2131,209.0763,320.5491" style="stroke:#000000;stroke-width:1.0;"/><text fill="#000000" font-family="sans-serif" font-size="13" lengthAdjust="spacing" textLength="103" x="220.5" y="321.4951">entrega un cliente</text></g><!--MD5=[477eefa37bd2d63ecf277d5cde559cf3]
link cola to caja3--><g id="link_cola_caja3"><path codeLine="27" d="M304.8,277.14 C312.36,285.9 321.25,296.72 328.5,307 C339.47,322.55 350.35,341.32 357.82,354.87 " fill="none" id="cola-caja3" style="stroke:#181818;stroke-width:1.0;"/><polygon fill="#000000" points="348.3175,320.3064,345.6485,311.178,340.7927,314.4901,348.3175,320.3064" style="stroke:#000000;stroke-width:1.0;"/><text fill="#000000" font-family="sans-serif" font-size="13" lengthAdjust="spacing" textLength="103" x="354.5" y="321.4951">entrega un cliente</text></g><!--MD5=[5de0acef693f7cf2f767dcb583a7a5b9]
link cola to caja4--><g id="link_cola_caja4"><path codeLine="28" d="M327.14,262.95 C365,268.25 423.18,280.3 466.5,307 C486.26,319.18 503.23,339.95 513.84,354.94 " fill="none" id="cola-caja4" style="stroke:#181818;stroke-width:1.0;"/><polygon fill="#000000" points="496.9851,318.3857,490.1704,311.7516,487.5725,317.0242,496.9851,318.3857" style="stroke:#000000;stroke-width:1.0;"/><text fill="#000000" font-family="sans-serif" font-size="13" lengthAdjust="spacing" textLength="103" x="501.5" y="321.4951">entrega un cliente</text></g><!--MD5=[6e4309bc002dd5a1f9206cbb14890c83]
@startuml
object ": CentroComercial" as cccf

object "cliente1: Cliente" as cliente1
object "cliente2: Cliente" as cliente2
object "cliente3: Cliente" as cliente3
object "clienteN: Cliente" as clienteN

cccf - - cliente1:> recibe
cccf - - cliente2:> recibe
cccf - - cliente3:> recibe
cccf - - clienteN:> recibe

object "cola: Cola" as cola

cliente1 - - cola:> espera en
cliente2 - - cola:> espera en
cliente3 - - cola:> espera en
clienteN - - cola:> espera en

object "caja1: Caja" as caja1
object "caja2: Caja" as caja2
object "caja3: Caja" as caja3
object "caja4: Caja" as caja4

cola - - caja1:> entrega un cliente
cola - - caja2:> entrega un cliente
cola - - caja3:> entrega un cliente
cola - - caja4:> entrega un cliente
@enduml

PlantUML version 1.2022.7(Mon Aug 22 19:01:30 CEST 2022)
(GPL source distribution)
Java Runtime: OpenJDK Runtime Environment
JVM: OpenJDK 64-Bit Server VM
Default Encoding: Cp1252
Language: es
Country: ES
--></g></svg>