<?xml version="1.0" encoding="UTF-8" standalone="no"?><svg xmlns="http://www.w3.org/2000/svg" xmlns:xlink="http://www.w3.org/1999/xlink" contentStyleType="text/css" height="357px" preserveAspectRatio="none" style="width:373px;height:357px;background:#FFFFFF;" version="1.1" viewBox="0 0 373 357" width="373px" zoomAndPan="magnify"><defs/><g><!--MD5=[6b1f924e306f8bcb33352047894ac253]
class ShoppingCenter--><g id="elem_ShoppingCenter"><rect fill="#F1F1F1" height="26.2969" id="ShoppingCenter" rx="2.5" ry="2.5" style="stroke:#181818;stroke-width:0.5;" width="119" x="7" y="7"/><text fill="#000000" font-family="sans-serif" font-size="14" lengthAdjust="spacing" textLength="113" x="10" y="24.9951">ShoppingCenter</text></g><!--MD5=[b25e6897497715e5a799d59d4053e611]
class CashRegister--><g id="elem_CashRegister"><rect fill="#F1F1F1" height="26.2969" id="CashRegister" rx="2.5" ry="2.5" style="stroke:#181818;stroke-width:0.5;" width="99" x="35" y="325"/><text fill="#000000" font-family="sans-serif" font-size="14" lengthAdjust="spacing" textLength="93" x="38" y="342.9951">CashRegister</text></g><!--MD5=[2ce0c9fb7f55b1e256ab28a8ea6b25ec]
class Customer--><g id="elem_Customer"><rect fill="#F1F1F1" height="26.2969" id="Customer" rx="2.5" ry="2.5" style="stroke:#181818;stroke-width:0.5;" width="74" x="29.5" y="110"/><text fill="#000000" font-family="sans-serif" font-size="14" lengthAdjust="spacing" textLength="68" x="32.5" y="127.9951">Customer</text></g><!--MD5=[696ee820e96b7cd0d9933d0c6198e4ed]
class Cashier--><g id="elem_Cashier"><rect fill="#F1F1F1" height="26.2969" id="Cashier" rx="2.5" ry="2.5" style="stroke:#181818;stroke-width:0.5;" width="58" x="248.5" y="166"/><text fill="#000000" font-family="sans-serif" font-size="14" lengthAdjust="spacing" textLength="52" x="251.5" y="183.9951">Cashier</text></g><!--MD5=[15b0de36700cf8bf422172734e699e19]
class Queue--><g id="elem_Queue"><rect fill="#F1F1F1" height="26.2969" id="Queue" rx="2.5" ry="2.5" style="stroke:#181818;stroke-width:0.5;" width="53" x="178" y="222"/><text fill="#000000" font-family="sans-serif" font-size="14" lengthAdjust="spacing" textLength="47" x="181" y="239.9951">Queue</text></g><!--MD5=[6c6bf016c6572430fec45b9480ef0869]
link ShoppingCenter to CashRegister--><g id="link_ShoppingCenter_CashRegister"><path codeLine="5" d="M55.84,33.19 C42.44,49.41 20.14,79.6 11.5,110 C8.34,121.12 10.48,124.49 11.5,136 C13.73,161.18 14.19,167.8 21.5,192 C36.97,243.24 65.43,300.55 78.11,324.95 " fill="none" id="ShoppingCenter-CashRegister" style="stroke:#181818;stroke-width:1.0;"/><polygon fill="#000000" points="26.8805,184.0519,29.1225,174.8094,23.2617,175.2567,26.8805,184.0519" style="stroke:#000000;stroke-width:1.0;"/><text fill="#000000" font-family="sans-serif" font-size="13" lengthAdjust="spacing" textLength="23" x="35.5" y="183.5669">has</text></g><!--MD5=[08650364caed9859ebccc0c059dadeac]
link ShoppingCenter to Customer--><g id="link_ShoppingCenter_Customer"><path codeLine="6" d="M66.5,33.38 C66.5,52.87 66.5,90.47 66.5,109.83 " fill="none" id="ShoppingCenter-Customer" style="stroke:#181818;stroke-width:1.0;"/><polygon fill="#000000" points="71.5,76.5664,74.4389,67.5213,68.5611,67.5213,71.5,76.5664" style="stroke:#000000;stroke-width:1.0;"/><text fill="#000000" font-family="sans-serif" font-size="13" lengthAdjust="spacing" textLength="53" x="80.5" y="76.0669">receives</text></g><!--MD5=[feec53de72dd3c3784d2687445e87edb]
link ShoppingCenter to Cashier--><g id="link_ShoppingCenter_Cashier"><path codeLine="7" d="M91.2,33.05 C106.44,40.87 126.14,51.68 142.5,63 C190.86,96.46 242.21,144.01 265.16,165.99 " fill="none" id="ShoppingCenter-Cashier" style="stroke:#181818;stroke-width:1.0;"/><polygon fill="#000000" points="174.4728,74.6024,169.0705,66.7751,165.5015,71.4454,174.4728,74.6024" style="stroke:#000000;stroke-width:1.0;"/><text fill="#000000" font-family="sans-serif" font-size="13" lengthAdjust="spacing" textLength="23" x="179.5" y="76.0669">has</text></g><!--MD5=[fd27d6efeb8b0be69b7376ebe5d56a9f]
link Cashier to CashRegister--><g id="link_Cashier_CashRegister"><path codeLine="12" d="M282.2,192.02 C290.28,214.88 303.71,265.02 279.5,295 C261.55,317.23 185.73,328.25 134.1,333.28 " fill="none" id="Cashier-CashRegister" style="stroke:#181818;stroke-width:1.0;"/><polygon fill="#000000" points="293.8819,238.5174,302.4555,234.4012,298.3987,230.1478,293.8819,238.5174" style="stroke:#000000;stroke-width:1.0;"/><text fill="#000000" font-family="sans-serif" font-size="13" lengthAdjust="spacing" textLength="59" x="306.5" y="239.5669">serves at</text></g><!--MD5=[19430e3cdebefcdf6d92dbe38358d6fa]
link Customer to Queue--><g id="link_Customer_Queue"><path codeLine="14" d="M81.8,136.19 C108.32,157.34 162.56,200.57 189.14,221.75 " fill="none" id="Customer-Queue" style="stroke:#181818;stroke-width:1.0;"/><polygon fill="#000000" points="157.4099,182.1829,152.1687,174.2469,148.505,178.8432,157.4099,182.1829" style="stroke:#000000;stroke-width:1.0;"/><text fill="#000000" font-family="sans-serif" font-size="13" lengthAdjust="spacing" textLength="47" x="162.5" y="183.5669">waits in</text></g><!--MD5=[a1567f86c5d4db9acaaef4372f4b827b]
link Queue to CashRegister--><g id="link_Queue_CashRegister"><path codeLine="16" d="M177.63,244.14 C159.01,250.85 134.6,261.9 117.5,278 C103.49,291.19 93.88,311.7 88.79,324.73 " fill="none" id="Queue-CashRegister" style="stroke:#181818;stroke-width:1.0;"/><polygon fill="#000000" points="118.7967,289.9258,127.4706,286.0253,123.5214,281.6718,118.7967,289.9258" style="stroke:#000000;stroke-width:1.0;"/><text fill="#000000" font-family="sans-serif" font-size="13" lengthAdjust="spacing" textLength="143" x="131.5" y="291.0669">delivers a customer to</text></g><!--MD5=[5c0b5a94423be9d0d5ab918d5a6834a2]
link Customer to CashRegister--><g id="link_Customer_CashRegister"><path codeLine="17" d="M66.57,136.35 C66.79,158.68 67.71,207.24 71.5,248 C74.07,275.68 79.35,307.89 82.33,324.96 " fill="none" id="Customer-CashRegister" style="stroke:#181818;stroke-width:1.0;"/><polygon fill="#000000" points="76.9163,240.049,79.0919,230.7906,73.2345,231.2801,76.9163,240.049" style="stroke:#000000;stroke-width:1.0;"/><text fill="#000000" font-family="sans-serif" font-size="13" lengthAdjust="spacing" textLength="74" x="85.5" y="239.5669">is served at</text></g><!--MD5=[fe1a2959d8ef4ada9c89a0c68afad5c9]
@startuml
hide circle
hide stereotype
hide empty members

ShoppingCenter - - CashRegister:> has
ShoppingCenter - - Customer:> receives
ShoppingCenter - - Cashier:> has

'Cashier -u-|> Person
'Customer -u-|> Person

Cashier - - CashRegister:> serves at

Customer - - Queue:> waits in

Queue - - CashRegister:> delivers a customer to
Customer - - CashRegister:> is served at
@enduml

@startuml
hide circle
hide stereotype
hide empty members

ShoppingCenter - - CashRegister:> has
ShoppingCenter - - Customer:> receives
ShoppingCenter - - Cashier:> has


Cashier - - CashRegister:> serves at

Customer - - Queue:> waits in

Queue - - CashRegister:> delivers a customer to
Customer - - CashRegister:> is served at
@enduml

PlantUML version 1.2022.7(Mon Aug 22 19:01:30 CEST 2022)
(GPL source distribution)
Java Runtime: OpenJDK Runtime Environment
JVM: OpenJDK 64-Bit Server VM
Default Encoding: UTF-8
Language: es
Country: ES
--></g></svg>