<?xml version="1.0" encoding="UTF-8" standalone="no"?><svg xmlns="http://www.w3.org/2000/svg" xmlns:xlink="http://www.w3.org/1999/xlink" contentStyleType="text/css" height="563px" preserveAspectRatio="none" style="width:641px;height:563px;background:#FFFFFF;" version="1.1" viewBox="0 0 641 563" width="641px" zoomAndPan="magnify"><defs/><g><!--MD5=[0e6100c45dd10d33d1db5c1de6f08b06]
class CentroDeAtencion--><g id="elem_CentroDeAtencion"><rect codeLine="2" fill="#F1F1F1" height="64.0986" id="CentroDeAtencion" rx="2.5" ry="2.5" style="stroke:#181818;stroke-width:0.5;" width="148" x="318.5" y="163"/><ellipse cx="333.5" cy="179" fill="#ADD1B2" rx="11" ry="11" style="stroke:#181818;stroke-width:1.0;"/><path d="M331.1563,178.8438 Q331.1563,180.7188 331.7344,181.7344 Q332.3125,182.7344 333.4688,182.7344 Q334.8125,182.7344 335.4688,180.7188 L337.7344,181.1406 Q336.625,184.6719 333.4531,184.6719 Q331.1094,184.6719 329.8906,183.1875 Q328.6719,181.7031 328.6719,178.8438 Q328.6719,173.125 333.375,173.125 Q334.9219,173.125 335.9531,173.9375 Q337,174.75 337.5,176.3594 L335.2344,176.9063 Q335,176.0313 334.5156,175.5469 Q334.0313,175.0469 333.4063,175.0469 Q331.1563,175.0469 331.1563,178.8438 Z " fill="#000000"/><text fill="#000000" font-family="sans-serif" font-size="14" lengthAdjust="spacing" textLength="116" x="347.5" y="184.0825">CentroDeAtencion</text><line style="stroke:#181818;stroke-width:0.5;" x1="319.5" x2="465.5" y1="195" y2="195"/><line style="stroke:#181818;stroke-width:0.5;" x1="319.5" x2="465.5" y1="203" y2="203"/><ellipse cx="329.5" cy="216.5493" fill="#84BE84" rx="3" ry="3" style="stroke:#038048;stroke-width:1.0;"/><text fill="#000000" font-family="sans-serif" font-size="14" lengthAdjust="spacing" textLength="91" x="338.5" y="220.1318">atiende(): void</text></g><!--MD5=[b2b224e876b723bde36af294211d87d8]
class Caja--><g id="elem_Caja"><rect codeLine="6" fill="#F1F1F1" height="96.2959" id="Caja" rx="2.5" ry="2.5" style="stroke:#181818;stroke-width:0.5;" width="221" x="413" y="319"/><ellipse cx="504.75" cy="335" fill="#ADD1B2" rx="11" ry="11" style="stroke:#181818;stroke-width:1.0;"/><path d="M502.4063,334.8438 Q502.4063,336.7188 502.9844,337.7344 Q503.5625,338.7344 504.7188,338.7344 Q506.0625,338.7344 506.7188,336.7188 L508.9844,337.1406 Q507.875,340.6719 504.7031,340.6719 Q502.3594,340.6719 501.1406,339.1875 Q499.9219,337.7031 499.9219,334.8438 Q499.9219,329.125 504.625,329.125 Q506.1719,329.125 507.2031,329.9375 Q508.25,330.75 508.75,332.3594 L506.4844,332.9063 Q506.25,332.0313 505.7656,331.5469 Q505.2813,331.0469 504.6563,331.0469 Q502.4063,331.0469 502.4063,334.8438 Z " fill="#000000"/><text fill="#000000" font-family="sans-serif" font-size="14" lengthAdjust="spacing" textLength="29" x="525.25" y="340.0825">Caja</text><line style="stroke:#181818;stroke-width:0.5;" x1="414" x2="633" y1="351" y2="351"/><line style="stroke:#181818;stroke-width:0.5;" x1="414" x2="633" y1="359" y2="359"/><ellipse cx="424" cy="372.5493" fill="#84BE84" rx="3" ry="3" style="stroke:#038048;stroke-width:1.0;"/><text fill="#000000" font-family="sans-serif" font-size="14" lengthAdjust="spacing" textLength="128" x="433" y="376.1318">estaLibre(): boolean</text><ellipse cx="424" cy="388.6479" fill="#84BE84" rx="3" ry="3" style="stroke:#038048;stroke-width:1.0;"/><text fill="#000000" font-family="sans-serif" font-size="14" lengthAdjust="spacing" textLength="195" x="433" y="392.2305">recibe(unCliente: Cliente): void</text><ellipse cx="424" cy="404.7466" fill="#84BE84" rx="3" ry="3" style="stroke:#038048;stroke-width:1.0;"/><text fill="#000000" font-family="sans-serif" font-size="14" lengthAdjust="spacing" textLength="91" x="433" y="408.3291">atiende(): void</text></g><!--MD5=[20a748d5ee336a9a91751b0a3d4f0beb]
class Cliente--><g id="elem_Cliente"><rect codeLine="12" fill="#F1F1F1" height="80.1973" id="Cliente" rx="2.5" ry="2.5" style="stroke:#181818;stroke-width:0.5;" width="190" x="298.5" y="476"/><ellipse cx="367.25" cy="492" fill="#ADD1B2" rx="11" ry="11" style="stroke:#181818;stroke-width:1.0;"/><path d="M364.9063,491.8438 Q364.9063,493.7188 365.4844,494.7344 Q366.0625,495.7344 367.2188,495.7344 Q368.5625,495.7344 369.2188,493.7188 L371.4844,494.1406 Q370.375,497.6719 367.2031,497.6719 Q364.8594,497.6719 363.6406,496.1875 Q362.4219,494.7031 362.4219,491.8438 Q362.4219,486.125 367.125,486.125 Q368.6719,486.125 369.7031,486.9375 Q370.75,487.75 371.25,489.3594 L368.9844,489.9063 Q368.75,489.0313 368.2656,488.5469 Q367.7813,488.0469 367.1563,488.0469 Q364.9063,488.0469 364.9063,491.8438 Z " fill="#000000"/><text fill="#000000" font-family="sans-serif" font-size="14" lengthAdjust="spacing" textLength="44" x="387.75" y="497.0825">Cliente</text><line style="stroke:#181818;stroke-width:0.5;" x1="299.5" x2="487.5" y1="508" y2="508"/><line style="stroke:#181818;stroke-width:0.5;" x1="299.5" x2="487.5" y1="516" y2="516"/><ellipse cx="309.5" cy="529.5493" fill="#84BE84" rx="3" ry="3" style="stroke:#038048;stroke-width:1.0;"/><text fill="#000000" font-family="sans-serif" font-size="14" lengthAdjust="spacing" textLength="150" x="318.5" y="533.1318">entregaProducto(): void</text><ellipse cx="309.5" cy="545.6479" fill="#84BE84" rx="3" ry="3" style="stroke:#038048;stroke-width:1.0;"/><text fill="#000000" font-family="sans-serif" font-size="14" lengthAdjust="spacing" textLength="164" x="318.5" y="549.2305">tieneProductos(): boolean</text></g><!--MD5=[1919ef7aecc5209ad78f9ad723215264]
class Cola--><g id="elem_Cola"><rect codeLine="17" fill="#F1F1F1" height="96.2959" id="Cola" rx="2.5" ry="2.5" style="stroke:#181818;stroke-width:0.5;" width="231" x="147" y="319"/><ellipse cx="243.75" cy="335" fill="#ADD1B2" rx="11" ry="11" style="stroke:#181818;stroke-width:1.0;"/><path d="M241.4063,334.8438 Q241.4063,336.7188 241.9844,337.7344 Q242.5625,338.7344 243.7188,338.7344 Q245.0625,338.7344 245.7188,336.7188 L247.9844,337.1406 Q246.875,340.6719 243.7031,340.6719 Q241.3594,340.6719 240.1406,339.1875 Q238.9219,337.7031 238.9219,334.8438 Q238.9219,329.125 243.625,329.125 Q245.1719,329.125 246.2031,329.9375 Q247.25,330.75 247.75,332.3594 L245.4844,332.9063 Q245.25,332.0313 244.7656,331.5469 Q244.2813,331.0469 243.6563,331.0469 Q241.4063,331.0469 241.4063,334.8438 Z " fill="#000000"/><text fill="#000000" font-family="sans-serif" font-size="14" lengthAdjust="spacing" textLength="29" x="264.25" y="340.0825">Cola</text><line style="stroke:#181818;stroke-width:0.5;" x1="148" x2="377" y1="351" y2="351"/><line style="stroke:#181818;stroke-width:0.5;" x1="148" x2="377" y1="359" y2="359"/><ellipse cx="158" cy="372.5493" fill="#84BE84" rx="3" ry="3" style="stroke:#038048;stroke-width:1.0;"/><text fill="#000000" font-family="sans-serif" font-size="14" lengthAdjust="spacing" textLength="205" x="167" y="376.1318">addCliente(cliente: Cliente): void</text><ellipse cx="158" cy="388.6479" fill="#84BE84" rx="3" ry="3" style="stroke:#038048;stroke-width:1.0;"/><text fill="#000000" font-family="sans-serif" font-size="14" lengthAdjust="spacing" textLength="154" x="167" y="392.2305">removeCliente(): Cliente</text><ellipse cx="158" cy="404.7466" fill="#84BE84" rx="3" ry="3" style="stroke:#038048;stroke-width:1.0;"/><text fill="#000000" font-family="sans-serif" font-size="14" lengthAdjust="spacing" textLength="160" x="167" y="408.3291">tienePersonas(): boolean</text></g><!--MD5=[a288e7e34db1f51eaf8904506d727000]
class CentroComercial--><g id="elem_CentroComercial"><rect codeLine="23" fill="#F1F1F1" height="64.0986" id="CentroComercial" rx="2.5" ry="2.5" style="stroke:#181818;stroke-width:0.5;" width="139" x="323" y="7"/><ellipse cx="338" cy="23" fill="#ADD1B2" rx="11" ry="11" style="stroke:#181818;stroke-width:1.0;"/><path d="M335.6563,22.8438 Q335.6563,24.7188 336.2344,25.7344 Q336.8125,26.7344 337.9688,26.7344 Q339.3125,26.7344 339.9688,24.7188 L342.2344,25.1406 Q341.125,28.6719 337.9531,28.6719 Q335.6094,28.6719 334.3906,27.1875 Q333.1719,25.7031 333.1719,22.8438 Q333.1719,17.125 337.875,17.125 Q339.4219,17.125 340.4531,17.9375 Q341.5,18.75 342,20.3594 L339.7344,20.9063 Q339.5,20.0313 339.0156,19.5469 Q338.5313,19.0469 337.9063,19.0469 Q335.6563,19.0469 335.6563,22.8438 Z " fill="#000000"/><text fill="#000000" font-family="sans-serif" font-size="14" lengthAdjust="spacing" textLength="107" x="352" y="28.0825">CentroComercial</text><line style="stroke:#181818;stroke-width:0.5;" x1="324" x2="461" y1="39" y2="39"/><line style="stroke:#181818;stroke-width:0.5;" x1="324" x2="461" y1="47" y2="47"/><ellipse cx="334" cy="60.5493" fill="#84BE84" rx="3" ry="3" style="stroke:#038048;stroke-width:1.0;"/><text fill="#000000" font-family="sans-serif" font-size="14" lengthAdjust="spacing" textLength="91" x="343" y="64.1318">atiende(): void</text></g><!--MD5=[3d4177ac58b4411586d067f34e84928f]
class List--><g id="elem_List"><rect codeLine="27" fill="#F1F1F1" height="48" id="List" rx="2.5" ry="2.5" style="stroke:#181818;stroke-width:0.5;" width="65" x="47" y="343"/><ellipse cx="62" cy="359" fill="#ADD1B2" rx="11" ry="11" style="stroke:#181818;stroke-width:1.0;"/><path d="M59.6563,358.8438 Q59.6563,360.7188 60.2344,361.7344 Q60.8125,362.7344 61.9688,362.7344 Q63.3125,362.7344 63.9688,360.7188 L66.2344,361.1406 Q65.125,364.6719 61.9531,364.6719 Q59.6094,364.6719 58.3906,363.1875 Q57.1719,361.7031 57.1719,358.8438 Q57.1719,353.125 61.875,353.125 Q63.4219,353.125 64.4531,353.9375 Q65.5,354.75 66,356.3594 L63.7344,356.9063 Q63.5,356.0313 63.0156,355.5469 Q62.5313,355.0469 61.9063,355.0469 Q59.6563,355.0469 59.6563,358.8438 Z " fill="#000000"/><text fill="#000000" font-family="sans-serif" font-size="14" lengthAdjust="spacing" textLength="22" x="76" y="364.0825">List</text><rect fill="#FFFFFF" height="15.7988" style="stroke:#181818;stroke-width:1.0;stroke-dasharray:2.0,2.0;" width="9" x="106" y="340"/><text fill="#000000" font-family="sans-serif" font-size="12" font-style="italic" lengthAdjust="spacing" textLength="7" x="107" y="352.2559">T</text><line style="stroke:#181818;stroke-width:0.5;" x1="48" x2="111" y1="375" y2="375"/><line style="stroke:#181818;stroke-width:0.5;" x1="48" x2="111" y1="383" y2="383"/></g><!--MD5=[3fee75583bb7a64f68d843a3c9534ab3]
class Node--><g id="elem_Node"><rect codeLine="30" fill="#F1F1F1" height="48" id="Node" rx="2.5" ry="2.5" style="stroke:#181818;stroke-width:0.5;" width="77" x="41" y="492"/><ellipse cx="56" cy="508" fill="#ADD1B2" rx="11" ry="11" style="stroke:#181818;stroke-width:1.0;"/><path d="M53.6563,507.8438 Q53.6563,509.7188 54.2344,510.7344 Q54.8125,511.7344 55.9688,511.7344 Q57.3125,511.7344 57.9688,509.7188 L60.2344,510.1406 Q59.125,513.6719 55.9531,513.6719 Q53.6094,513.6719 52.3906,512.1875 Q51.1719,510.7031 51.1719,507.8438 Q51.1719,502.125 55.875,502.125 Q57.4219,502.125 58.4531,502.9375 Q59.5,503.75 60,505.3594 L57.7344,505.9063 Q57.5,505.0313 57.0156,504.5469 Q56.5313,504.0469 55.9063,504.0469 Q53.6563,504.0469 53.6563,507.8438 Z " fill="#000000"/><text fill="#000000" font-family="sans-serif" font-size="14" lengthAdjust="spacing" textLength="34" x="70" y="513.0825">Node</text><rect fill="#FFFFFF" height="15.7988" style="stroke:#181818;stroke-width:1.0;stroke-dasharray:2.0,2.0;" width="9" x="112" y="489"/><text fill="#000000" font-family="sans-serif" font-size="12" font-style="italic" lengthAdjust="spacing" textLength="7" x="113" y="501.2559">T</text><line style="stroke:#181818;stroke-width:0.5;" x1="42" x2="117" y1="524" y2="524"/><line style="stroke:#181818;stroke-width:0.5;" x1="42" x2="117" y1="532" y2="532"/></g><!--MD5=[36c69e103e6a1b590bb0b05acee9c048]
class IDataStructure--><g id="elem_IDataStructure"><rect codeLine="33" fill="#F1F1F1" height="96.2959" id="IDataStructure" rx="2.5" ry="2.5" style="stroke:#181818;stroke-width:0.5;" width="145" x="7" y="147"/><ellipse cx="26.5" cy="163" fill="#B4A7E5" rx="11" ry="11" style="stroke:#181818;stroke-width:1.0;"/><path d="M22.7969,157.2969 L30.4063,157.2969 L30.4063,159.1875 L27.8281,159.1875 L27.8281,166.6094 L30.4063,166.6094 L30.4063,168.5 L22.7969,168.5 L22.7969,166.6094 L25.3906,166.6094 L25.3906,159.1875 L22.7969,159.1875 L22.7969,157.2969 Z " fill="#000000"/><text fill="#000000" font-family="sans-serif" font-size="14" font-style="italic" lengthAdjust="spacing" textLength="92" x="41.5" y="168.0825">IDataStructure</text><rect fill="#FFFFFF" height="15.7988" style="stroke:#181818;stroke-width:1.0;stroke-dasharray:2.0,2.0;" width="9" x="146" y="144"/><text fill="#000000" font-family="sans-serif" font-size="12" font-style="italic" lengthAdjust="spacing" textLength="7" x="147" y="156.2559">T</text><line style="stroke:#181818;stroke-width:0.5;" x1="8" x2="151" y1="179" y2="179"/><line style="stroke:#181818;stroke-width:0.5;" x1="8" x2="151" y1="187" y2="187"/><ellipse cx="18" cy="200.5493" fill="#84BE84" rx="3" ry="3" style="stroke:#038048;stroke-width:1.0;"/><text fill="#000000" font-family="sans-serif" font-size="14" lengthAdjust="spacing" textLength="119" x="27" y="204.1318">isEmpty(): boolean</text><ellipse cx="18" cy="216.6479" fill="#84BE84" rx="3" ry="3" style="stroke:#038048;stroke-width:1.0;"/><text fill="#000000" font-family="sans-serif" font-size="14" lengthAdjust="spacing" textLength="58" x="27" y="220.2305">size(): int</text><ellipse cx="18" cy="232.7466" fill="#84BE84" rx="3" ry="3" style="stroke:#038048;stroke-width:1.0;"/><text fill="#000000" font-family="sans-serif" font-size="14" lengthAdjust="spacing" textLength="114" x="27" y="236.3291">listData(): Object[]</text></g><!--MD5=[f2108a46de9f6d566e4189c775487951]
reverse link Caja to Cliente--><g id="link_Caja_Cliente"><path codeLine="39" d="M473,425.1 C458.05,442.01 442.02,460.13 428.31,475.64 " fill="none" id="Caja-backto-Cliente" style="stroke:#181818;stroke-width:1.0;"/><polygon fill="none" points="481.65,415.32,474.679,417.1654,473.7014,424.31,480.6724,422.4645,481.65,415.32" style="stroke:#181818;stroke-width:1.0;"/><text fill="#000000" font-family="sans-serif" font-size="13" lengthAdjust="spacing" textLength="7" x="468.2727" y="435.3391">1</text><text fill="#000000" font-family="sans-serif" font-size="13" lengthAdjust="spacing" textLength="22" x="410.7" y="465.1711">0..1</text></g><!--MD5=[21252647f1a5901273aa60d37bd0237d]
reverse link Cola to Cliente--><g id="link_Cola_Cliente"><path codeLine="40" d="M313.39,425.1 C328.45,442.01 344.6,460.13 358.43,475.64 " fill="none" id="Cola-backto-Cliente" style="stroke:#181818;stroke-width:1.0;"/><polygon fill="none" points="304.67,415.32,305.6698,422.4615,312.6465,424.2853,311.6467,417.1438,304.67,415.32" style="stroke:#181818;stroke-width:1.0;"/><text fill="#000000" font-family="sans-serif" font-size="13" lengthAdjust="spacing" textLength="7" x="303.108" y="435.3391">1</text><text fill="#000000" font-family="sans-serif" font-size="13" lengthAdjust="spacing" textLength="5" x="346.503" y="465.1711">*</text></g><!--MD5=[3235e0459c70ed0b4517e6925c360bda]
link CentroDeAtencion to Caja--><g id="link_CentroDeAtencion_Caja"><path codeLine="41" d="M416.53,227.18 C436.32,252.87 464.7,289.7 487.26,318.97 " fill="none" id="CentroDeAtencion-Caja" style="stroke:#181818;stroke-width:1.0;"/><polygon fill="#000000" points="469.5519,285.4349,466.359,276.4764,461.703,280.064,469.5519,285.4349" style="stroke:#000000;stroke-width:1.0;"/><text fill="#000000" font-family="sans-serif" font-size="13" lengthAdjust="spacing" textLength="49" x="475.5" y="286.1938">contiene</text><text fill="#000000" font-family="sans-serif" font-size="13" lengthAdjust="spacing" textLength="7" x="413.5718" y="247.1711">1</text><text fill="#000000" font-family="sans-serif" font-size="13" lengthAdjust="spacing" textLength="5" x="475.8437" y="308.1036">*</text></g><!--MD5=[aef1dea6429d6f28b35baf5f3552d5b0]
link CentroDeAtencion to Cola--><g id="link_CentroDeAtencion_Cola"><path codeLine="42" d="M368.66,227.18 C349.01,252.87 320.85,289.7 298.46,318.97 " fill="none" id="CentroDeAtencion-Cola" style="stroke:#181818;stroke-width:1.0;"/><polygon fill="#000000" points="332.4625,285.446,340.2918,280.0466,335.6229,276.4759,332.4625,285.446" style="stroke:#000000;stroke-width:1.0;"/><text fill="#000000" font-family="sans-serif" font-size="13" lengthAdjust="spacing" textLength="21" x="344.5" y="286.1938">usa</text></g><!--MD5=[31bdfad1e23c5ab11f4540e0898d2a4f]
link CentroComercial to CentroDeAtencion--><g id="link_CentroComercial_CentroDeAtencion"><path codeLine="43" d="M392.5,71.16 C392.5,97.88 392.5,136.18 392.5,162.88 " fill="none" id="CentroComercial-CentroDeAtencion" style="stroke:#181818;stroke-width:1.0;"/><polygon fill="#000000" points="397.5,114.4744,400.4389,105.4293,394.5611,105.4293,397.5,114.4744" style="stroke:#000000;stroke-width:1.0;"/><text fill="#000000" font-family="sans-serif" font-size="13" lengthAdjust="spacing" textLength="21" x="406.5" y="114.1938">usa</text></g><!--MD5=[682a2a2d488366f1c829018cb3947914]
link List to Cola--><g id="link_List_Cola"><path codeLine="44" d="M112.03,367 C123.68,367 135.34,367 147,367 " fill="none" id="List-Cola" style="stroke:#181818;stroke-width:1.0;"/></g><!--MD5=[bbf043ee690f9c7afb69dd5976a72333]
link List to Node--><g id="link_List_Node"><path codeLine="45" d="M79.5,391.29 C79.5,418.82 79.5,464.34 79.5,491.82 " fill="none" id="List-Node" style="stroke:#181818;stroke-width:1.0;"/></g><!--MD5=[24d7dac2295fba8c0a76fbc30ec93ada]
reverse link IDataStructure to List--><g id="link_IDataStructure_List"><path codeLine="46" d="M79.5,263.62 C79.5,291.7 79.5,322.43 79.5,342.82 " fill="none" id="IDataStructure-backto-List" style="stroke:#181818;stroke-width:1.0;stroke-dasharray:7.0,7.0;"/><polygon fill="none" points="72.5,263.35,79.5,243.35,86.5,263.35,72.5,263.35" style="stroke:#181818;stroke-width:1.0;"/></g><!--MD5=[0a8b36b0d3097f49561f4606fa794293]
@startuml

class CentroDeAtencion {
    + atiende(): void
}

class Caja {
    + estaLibre(): boolean
    + recibe(unCliente: Cliente): void
    + atiende(): void
}

class Cliente {
    + entregaProducto(): void
    + tieneProductos(): boolean
}

class Cola {
    + addCliente(cliente: Cliente): void
    + removeCliente(): Cliente
    + tienePersonas(): boolean
}

class CentroComercial {
    + atiende(): void
}

class List<T> {
}

class Node<T> {
}

interface IDataStructure<T> {
    + isEmpty(): boolean
    + size(): int
    + listData(): Object[]
}

Caja "1" o- - "0..1" Cliente 
Cola "1" o- - "*" Cliente 
CentroDeAtencion "1" - - "*" Caja : contiene >
CentroDeAtencion - - Cola : usa >
CentroComercial - - CentroDeAtencion : usa >
Cola -l- List 
List - - Node 
List .u.|> IDataStructure

@enduml

PlantUML version 1.2022.7(Mon Aug 22 19:01:30 CEST 2022)
(GPL source distribution)
Java Runtime: OpenJDK Runtime Environment
JVM: OpenJDK 64-Bit Server VM
Default Encoding: UTF-8
Language: es
Country: ES
--></g></svg>