<?xml version="1.0" encoding="UTF-8" standalone="no"?><svg xmlns="http://www.w3.org/2000/svg" xmlns:xlink="http://www.w3.org/1999/xlink" contentStyleType="text/css" height="902px" preserveAspectRatio="none" style="width:641px;height:902px;background:#FFFFFF;" version="1.1" viewBox="0 0 641 902" width="641px" zoomAndPan="magnify"><defs/><g><!--MD5=[0e6100c45dd10d33d1db5c1de6f08b06]
class CentroDeAtencion--><g id="elem_CentroDeAtencion"><rect codeLine="2" fill="#F1F1F1" height="160.6904" id="CentroDeAtencion" rx="2.5" ry="2.5" style="stroke:#181818;stroke-width:0.5;" width="251" x="269" y="324"/><ellipse cx="332.25" cy="340" fill="#ADD1B2" rx="11" ry="11" style="stroke:#181818;stroke-width:1.0;"/><path d="M329.9063,339.8438 Q329.9063,341.7188 330.4844,342.7344 Q331.0625,343.7344 332.2188,343.7344 Q333.5625,343.7344 334.2188,341.7188 L336.4844,342.1406 Q335.375,345.6719 332.2031,345.6719 Q329.8594,345.6719 328.6406,344.1875 Q327.4219,342.7031 327.4219,339.8438 Q327.4219,334.125 332.125,334.125 Q333.6719,334.125 334.7031,334.9375 Q335.75,335.75 336.25,337.3594 L333.9844,337.9063 Q333.75,337.0313 333.2656,336.5469 Q332.7813,336.0469 332.1563,336.0469 Q329.9063,336.0469 329.9063,339.8438 Z " fill="#000000"/><text fill="#000000" font-family="sans-serif" font-size="14" lengthAdjust="spacing" textLength="116" x="352.75" y="345.0825">CentroDeAtencion</text><line style="stroke:#181818;stroke-width:0.5;" x1="270" x2="519" y1="356" y2="356"/><rect fill="none" height="6" style="stroke:#C82930;stroke-width:1.0;" width="6" x="277" y="366.5493"/><text fill="#000000" font-family="sans-serif" font-size="14" lengthAdjust="spacing" textLength="81" x="289" y="373.1318">miCola: Cola</text><rect fill="none" height="6" style="stroke:#C82930;stroke-width:1.0;" width="6" x="277" y="382.6479"/><text fill="#000000" font-family="sans-serif" font-size="14" lengthAdjust="spacing" textLength="78" x="289" y="389.2305">cajas: Caja[]</text><line style="stroke:#181818;stroke-width:0.5;" x1="270" x2="519" y1="396.1973" y2="396.1973"/><ellipse cx="280" cy="409.7466" fill="#84BE84" rx="3" ry="3" style="stroke:#038048;stroke-width:1.0;"/><text fill="#000000" font-family="sans-serif" font-size="14" lengthAdjust="spacing" textLength="91" x="289" y="413.3291">atiende(): void</text><rect fill="#F24D5C" height="6" style="stroke:#C82930;stroke-width:1.0;" width="6" x="277" y="422.8452"/><text fill="#000000" font-family="sans-serif" font-size="14" lengthAdjust="spacing" textLength="183" x="289" y="429.4277">queAtiendanLasCajas(): void</text><rect fill="#F24D5C" height="6" style="stroke:#C82930;stroke-width:1.0;" width="6" x="277" y="438.9438"/><text fill="#000000" font-family="sans-serif" font-size="14" lengthAdjust="spacing" textLength="225" x="289" y="445.5264">pasoACaja(unCliente: Cliente): void</text><rect fill="#F24D5C" height="6" style="stroke:#C82930;stroke-width:1.0;" width="6" x="277" y="455.0425"/><text fill="#000000" font-family="sans-serif" font-size="14" lengthAdjust="spacing" textLength="217" x="289" y="461.625">dimeCajaLibre(cajas: Caja[]): Caja</text><rect fill="#F24D5C" height="6" style="stroke:#C82930;stroke-width:1.0;" width="6" x="277" y="471.1411"/><text fill="#000000" font-family="sans-serif" font-size="14" lengthAdjust="spacing" textLength="153" x="289" y="477.7236">hayCajaLibre(): boolean</text></g><!--MD5=[b2b224e876b723bde36af294211d87d8]
class Caja--><g id="elem_Caja"><rect codeLine="12" fill="#F1F1F1" height="160.6904" id="Caja" rx="2.5" ry="2.5" style="stroke:#181818;stroke-width:0.5;" width="221" x="413" y="561"/><ellipse cx="504.75" cy="577" fill="#ADD1B2" rx="11" ry="11" style="stroke:#181818;stroke-width:1.0;"/><path d="M502.4063,576.8438 Q502.4063,578.7188 502.9844,579.7344 Q503.5625,580.7344 504.7188,580.7344 Q506.0625,580.7344 506.7188,578.7188 L508.9844,579.1406 Q507.875,582.6719 504.7031,582.6719 Q502.3594,582.6719 501.1406,581.1875 Q499.9219,579.7031 499.9219,576.8438 Q499.9219,571.125 504.625,571.125 Q506.1719,571.125 507.2031,571.9375 Q508.25,572.75 508.75,574.3594 L506.4844,574.9063 Q506.25,574.0313 505.7656,573.5469 Q505.2813,573.0469 504.6563,573.0469 Q502.4063,573.0469 502.4063,576.8438 Z " fill="#000000"/><text fill="#000000" font-family="sans-serif" font-size="14" lengthAdjust="spacing" textLength="29" x="525.25" y="582.0825">Caja</text><line style="stroke:#181818;stroke-width:0.5;" x1="414" x2="633" y1="593" y2="593"/><rect fill="none" height="6" style="stroke:#C82930;stroke-width:1.0;" width="6" x="421" y="603.5493"/><text fill="#000000" font-family="sans-serif" font-size="14" lengthAdjust="spacing" textLength="103" x="433" y="610.1318">abierta: boolean</text><rect fill="none" height="6" style="stroke:#C82930;stroke-width:1.0;" width="6" x="421" y="619.6479"/><text fill="#000000" font-family="sans-serif" font-size="14" lengthAdjust="spacing" textLength="93" x="433" y="626.2305">cliente: Cliente</text><rect fill="none" height="6" style="stroke:#C82930;stroke-width:1.0;" width="6" x="421" y="635.7466"/><text fill="#000000" font-family="sans-serif" font-size="14" lengthAdjust="spacing" textLength="141" x="433" y="642.3291">nombreDeCaja: String</text><line style="stroke:#181818;stroke-width:0.5;" x1="414" x2="633" y1="649.2959" y2="649.2959"/><ellipse cx="424" cy="662.8452" fill="#84BE84" rx="3" ry="3" style="stroke:#038048;stroke-width:1.0;"/><text fill="#000000" font-family="sans-serif" font-size="14" lengthAdjust="spacing" textLength="128" x="433" y="666.4277">estaLibre(): boolean</text><ellipse cx="424" cy="678.9438" fill="#84BE84" rx="3" ry="3" style="stroke:#038048;stroke-width:1.0;"/><text fill="#000000" font-family="sans-serif" font-size="14" lengthAdjust="spacing" textLength="195" x="433" y="682.5264">recibe(unCliente: Cliente): void</text><ellipse cx="424" cy="695.0425" fill="#84BE84" rx="3" ry="3" style="stroke:#038048;stroke-width:1.0;"/><text fill="#000000" font-family="sans-serif" font-size="14" lengthAdjust="spacing" textLength="91" x="433" y="698.625">atiende(): void</text><rect fill="#F24D5C" height="6" style="stroke:#C82930;stroke-width:1.0;" width="6" x="421" y="708.1411"/><text fill="#000000" font-family="sans-serif" font-size="14" lengthAdjust="spacing" textLength="106" x="433" y="714.7236">despacha(): void</text></g><!--MD5=[20a748d5ee336a9a91751b0a3d4f0beb]
class Cliente--><g id="elem_Cliente"><rect codeLine="22" fill="#F1F1F1" height="112.3945" id="Cliente" rx="2.5" ry="2.5" style="stroke:#181818;stroke-width:0.5;" width="190" x="298.5" y="783"/><ellipse cx="367.25" cy="799" fill="#ADD1B2" rx="11" ry="11" style="stroke:#181818;stroke-width:1.0;"/><path d="M364.9063,798.8438 Q364.9063,800.7188 365.4844,801.7344 Q366.0625,802.7344 367.2188,802.7344 Q368.5625,802.7344 369.2188,800.7188 L371.4844,801.1406 Q370.375,804.6719 367.2031,804.6719 Q364.8594,804.6719 363.6406,803.1875 Q362.4219,801.7031 362.4219,798.8438 Q362.4219,793.125 367.125,793.125 Q368.6719,793.125 369.7031,793.9375 Q370.75,794.75 371.25,796.3594 L368.9844,796.9063 Q368.75,796.0313 368.2656,795.5469 Q367.7813,795.0469 367.1563,795.0469 Q364.9063,795.0469 364.9063,798.8438 Z " fill="#000000"/><text fill="#000000" font-family="sans-serif" font-size="14" lengthAdjust="spacing" textLength="44" x="387.75" y="804.0825">Cliente</text><line style="stroke:#181818;stroke-width:0.5;" x1="299.5" x2="487.5" y1="815" y2="815"/><rect fill="none" height="6" style="stroke:#C82930;stroke-width:1.0;" width="6" x="306.5" y="825.5493"/><text fill="#000000" font-family="sans-serif" font-size="14" lengthAdjust="spacing" textLength="106" x="318.5" y="832.1318">packDeItems: int</text><rect fill="none" height="6" style="stroke:#C82930;stroke-width:1.0;" width="6" x="306.5" y="841.6479"/><text fill="#000000" font-family="sans-serif" font-size="14" lengthAdjust="spacing" textLength="138" x="318.5" y="848.2305">nombreCliente: String</text><line style="stroke:#181818;stroke-width:0.5;" x1="299.5" x2="487.5" y1="855.1973" y2="855.1973"/><ellipse cx="309.5" cy="868.7466" fill="#84BE84" rx="3" ry="3" style="stroke:#038048;stroke-width:1.0;"/><text fill="#000000" font-family="sans-serif" font-size="14" lengthAdjust="spacing" textLength="150" x="318.5" y="872.3291">entregaProducto(): void</text><ellipse cx="309.5" cy="884.8452" fill="#84BE84" rx="3" ry="3" style="stroke:#038048;stroke-width:1.0;"/><text fill="#000000" font-family="sans-serif" font-size="14" lengthAdjust="spacing" textLength="164" x="318.5" y="888.4277">tieneProductos(): boolean</text></g><!--MD5=[1919ef7aecc5209ad78f9ad723215264]
class Cola--><g id="elem_Cola"><rect codeLine="29" fill="#F1F1F1" height="128.4932" id="Cola" rx="2.5" ry="2.5" style="stroke:#181818;stroke-width:0.5;" width="231" x="147" y="577.5"/><ellipse cx="243.75" cy="593.5" fill="#ADD1B2" rx="11" ry="11" style="stroke:#181818;stroke-width:1.0;"/><path d="M241.4063,593.3438 Q241.4063,595.2188 241.9844,596.2344 Q242.5625,597.2344 243.7188,597.2344 Q245.0625,597.2344 245.7188,595.2188 L247.9844,595.6406 Q246.875,599.1719 243.7031,599.1719 Q241.3594,599.1719 240.1406,597.6875 Q238.9219,596.2031 238.9219,593.3438 Q238.9219,587.625 243.625,587.625 Q245.1719,587.625 246.2031,588.4375 Q247.25,589.25 247.75,590.8594 L245.4844,591.4063 Q245.25,590.5313 244.7656,590.0469 Q244.2813,589.5469 243.6563,589.5469 Q241.4063,589.5469 241.4063,593.3438 Z " fill="#000000"/><text fill="#000000" font-family="sans-serif" font-size="14" lengthAdjust="spacing" textLength="29" x="264.25" y="598.5825">Cola</text><line style="stroke:#181818;stroke-width:0.5;" x1="148" x2="377" y1="609.5" y2="609.5"/><rect fill="none" height="6" style="stroke:#C82930;stroke-width:1.0;" width="6" x="155" y="620.0493"/><text fill="#000000" font-family="sans-serif" font-size="14" lengthAdjust="spacing" textLength="138" x="167" y="626.6318">clientes: List&lt;Cliente&gt;</text><rect fill="none" height="6" style="stroke:#C82930;stroke-width:1.0;" width="6" x="155" y="636.1479"/><text fill="#000000" font-family="sans-serif" font-size="14" lengthAdjust="spacing" textLength="128" x="167" y="642.7305">personasEnCola: int</text><line style="stroke:#181818;stroke-width:0.5;" x1="148" x2="377" y1="649.6973" y2="649.6973"/><ellipse cx="158" cy="663.2466" fill="#84BE84" rx="3" ry="3" style="stroke:#038048;stroke-width:1.0;"/><text fill="#000000" font-family="sans-serif" font-size="14" lengthAdjust="spacing" textLength="205" x="167" y="666.8291">addCliente(cliente: Cliente): void</text><ellipse cx="158" cy="679.3452" fill="#84BE84" rx="3" ry="3" style="stroke:#038048;stroke-width:1.0;"/><text fill="#000000" font-family="sans-serif" font-size="14" lengthAdjust="spacing" textLength="154" x="167" y="682.9277">removeCliente(): Cliente</text><ellipse cx="158" cy="695.4438" fill="#84BE84" rx="3" ry="3" style="stroke:#038048;stroke-width:1.0;"/><text fill="#000000" font-family="sans-serif" font-size="14" lengthAdjust="spacing" textLength="160" x="167" y="699.0264">tienePersonas(): boolean</text></g><!--MD5=[a288e7e34db1f51eaf8904506d727000]
class CentroComercial--><g id="elem_CentroComercial"><rect codeLine="37" fill="#F1F1F1" height="241.1836" id="CentroComercial" rx="2.5" ry="2.5" style="stroke:#181818;stroke-width:0.5;" width="206" x="291.5" y="7"/><ellipse cx="336.75" cy="23" fill="#ADD1B2" rx="11" ry="11" style="stroke:#181818;stroke-width:1.0;"/><path d="M334.4063,22.8438 Q334.4063,24.7188 334.9844,25.7344 Q335.5625,26.7344 336.7188,26.7344 Q338.0625,26.7344 338.7188,24.7188 L340.9844,25.1406 Q339.875,28.6719 336.7031,28.6719 Q334.3594,28.6719 333.1406,27.1875 Q331.9219,25.7031 331.9219,22.8438 Q331.9219,17.125 336.625,17.125 Q338.1719,17.125 339.2031,17.9375 Q340.25,18.75 340.75,20.3594 L338.4844,20.9063 Q338.25,20.0313 337.7656,19.5469 Q337.2813,19.0469 336.6563,19.0469 Q334.4063,19.0469 334.4063,22.8438 Z " fill="#000000"/><text fill="#000000" font-family="sans-serif" font-size="14" lengthAdjust="spacing" textLength="107" x="357.25" y="28.0825">CentroComercial</text><line style="stroke:#181818;stroke-width:0.5;" x1="292.5" x2="496.5" y1="39" y2="39"/><rect fill="none" height="6" style="stroke:#C82930;stroke-width:1.0;" width="6" x="299.5" y="49.5493"/><text fill="#000000" font-family="sans-serif" font-size="14" lengthAdjust="spacing" textLength="180" x="311.5" y="56.1318">probabilidadLlegada: double</text><rect fill="none" height="6" style="stroke:#C82930;stroke-width:1.0;" width="6" x="299.5" y="65.6479"/><text fill="#000000" font-family="sans-serif" font-size="14" lengthAdjust="spacing" textLength="135" x="311.5" y="72.2305">horaApertura: double</text><rect fill="none" height="6" style="stroke:#C82930;stroke-width:1.0;" width="6" x="299.5" y="81.7466"/><text fill="#000000" font-family="sans-serif" font-size="14" lengthAdjust="spacing" textLength="119" x="311.5" y="88.3291">horaCierre: double</text><rect fill="none" height="6" style="stroke:#C82930;stroke-width:1.0;" width="6" x="299.5" y="97.8452"/><text fill="#000000" font-family="sans-serif" font-size="14" lengthAdjust="spacing" textLength="131" x="311.5" y="104.4277">estaAbierto: boolean</text><rect fill="none" height="6" style="stroke:#C82930;stroke-width:1.0;" width="6" x="299.5" y="113.9438"/><text fill="#000000" font-family="sans-serif" font-size="14" lengthAdjust="spacing" textLength="80" x="311.5" y="120.5264">hora: double</text><rect fill="none" height="6" style="stroke:#C82930;stroke-width:1.0;" width="6" x="299.5" y="130.0425"/><text fill="#000000" font-family="sans-serif" font-size="14" lengthAdjust="spacing" textLength="135" x="311.5" y="136.625">UN_MINUTO: double</text><rect fill="none" height="6" style="stroke:#C82930;stroke-width:1.0;" width="6" x="299.5" y="146.1411"/><text fill="#000000" font-family="sans-serif" font-size="14" lengthAdjust="spacing" textLength="143" x="311.5" y="152.7236">COMPRA_MINIMA: int</text><rect fill="none" height="6" style="stroke:#C82930;stroke-width:1.0;" width="6" x="299.5" y="162.2397"/><text fill="#000000" font-family="sans-serif" font-size="14" lengthAdjust="spacing" textLength="147" x="311.5" y="168.8223">COMPRA_MAXIMA: int</text><rect fill="none" height="6" style="stroke:#C82930;stroke-width:1.0;" width="6" x="299.5" y="178.3384"/><text fill="#000000" font-family="sans-serif" font-size="14" lengthAdjust="spacing" textLength="157" x="311.5" y="184.9209">cajas: CentroDeAtencion</text><rect fill="none" height="6" style="stroke:#C82930;stroke-width:1.0;" width="6" x="299.5" y="194.437"/><text fill="#000000" font-family="sans-serif" font-size="14" lengthAdjust="spacing" textLength="63" x="311.5" y="201.0195">cola: Cola</text><line style="stroke:#181818;stroke-width:0.5;" x1="292.5" x2="496.5" y1="207.9863" y2="207.9863"/><ellipse cx="302.5" cy="221.5356" fill="#84BE84" rx="3" ry="3" style="stroke:#038048;stroke-width:1.0;"/><text fill="#000000" font-family="sans-serif" font-size="14" lengthAdjust="spacing" textLength="91" x="311.5" y="225.1182">atiende(): void</text><rect fill="#F24D5C" height="6" style="stroke:#C82930;stroke-width:1.0;" width="6" x="299.5" y="234.6343"/><text fill="#000000" font-family="sans-serif" font-size="14" lengthAdjust="spacing" textLength="152" x="311.5" y="241.2168">inventaNombre(): String</text></g><!--MD5=[3d4177ac58b4411586d067f34e84928f]
class List--><g id="elem_List"><rect codeLine="52" fill="#F1F1F1" height="48" id="List" rx="2.5" ry="2.5" style="stroke:#181818;stroke-width:0.5;" width="65" x="47" y="617.5"/><ellipse cx="62" cy="633.5" fill="#ADD1B2" rx="11" ry="11" style="stroke:#181818;stroke-width:1.0;"/><path d="M59.6563,633.3438 Q59.6563,635.2188 60.2344,636.2344 Q60.8125,637.2344 61.9688,637.2344 Q63.3125,637.2344 63.9688,635.2188 L66.2344,635.6406 Q65.125,639.1719 61.9531,639.1719 Q59.6094,639.1719 58.3906,637.6875 Q57.1719,636.2031 57.1719,633.3438 Q57.1719,627.625 61.875,627.625 Q63.4219,627.625 64.4531,628.4375 Q65.5,629.25 66,630.8594 L63.7344,631.4063 Q63.5,630.5313 63.0156,630.0469 Q62.5313,629.5469 61.9063,629.5469 Q59.6563,629.5469 59.6563,633.3438 Z " fill="#000000"/><text fill="#000000" font-family="sans-serif" font-size="14" lengthAdjust="spacing" textLength="22" x="76" y="638.5825">List</text><rect fill="#FFFFFF" height="15.7988" style="stroke:#181818;stroke-width:1.0;stroke-dasharray:2.0,2.0;" width="9" x="106" y="614.5"/><text fill="#000000" font-family="sans-serif" font-size="12" font-style="italic" lengthAdjust="spacing" textLength="7" x="107" y="626.7559">T</text><line style="stroke:#181818;stroke-width:0.5;" x1="48" x2="111" y1="649.5" y2="649.5"/><line style="stroke:#181818;stroke-width:0.5;" x1="48" x2="111" y1="657.5" y2="657.5"/></g><!--MD5=[3fee75583bb7a64f68d843a3c9534ab3]
class Node--><g id="elem_Node"><rect codeLine="55" fill="#F1F1F1" height="48" id="Node" rx="2.5" ry="2.5" style="stroke:#181818;stroke-width:0.5;" width="77" x="41" y="815"/><ellipse cx="56" cy="831" fill="#ADD1B2" rx="11" ry="11" style="stroke:#181818;stroke-width:1.0;"/><path d="M53.6563,830.8438 Q53.6563,832.7188 54.2344,833.7344 Q54.8125,834.7344 55.9688,834.7344 Q57.3125,834.7344 57.9688,832.7188 L60.2344,833.1406 Q59.125,836.6719 55.9531,836.6719 Q53.6094,836.6719 52.3906,835.1875 Q51.1719,833.7031 51.1719,830.8438 Q51.1719,825.125 55.875,825.125 Q57.4219,825.125 58.4531,825.9375 Q59.5,826.75 60,828.3594 L57.7344,828.9063 Q57.5,828.0313 57.0156,827.5469 Q56.5313,827.0469 55.9063,827.0469 Q53.6563,827.0469 53.6563,830.8438 Z " fill="#000000"/><text fill="#000000" font-family="sans-serif" font-size="14" lengthAdjust="spacing" textLength="34" x="70" y="836.0825">Node</text><rect fill="#FFFFFF" height="15.7988" style="stroke:#181818;stroke-width:1.0;stroke-dasharray:2.0,2.0;" width="9" x="112" y="812"/><text fill="#000000" font-family="sans-serif" font-size="12" font-style="italic" lengthAdjust="spacing" textLength="7" x="113" y="824.2559">T</text><line style="stroke:#181818;stroke-width:0.5;" x1="42" x2="117" y1="847" y2="847"/><line style="stroke:#181818;stroke-width:0.5;" x1="42" x2="117" y1="855" y2="855"/></g><!--MD5=[36c69e103e6a1b590bb0b05acee9c048]
class IDataStructure--><g id="elem_IDataStructure"><rect codeLine="58" fill="#F1F1F1" height="96.2959" id="IDataStructure" rx="2.5" ry="2.5" style="stroke:#181818;stroke-width:0.5;" width="145" x="7" y="356.5"/><ellipse cx="26.5" cy="372.5" fill="#B4A7E5" rx="11" ry="11" style="stroke:#181818;stroke-width:1.0;"/><path d="M22.7969,366.7969 L30.4063,366.7969 L30.4063,368.6875 L27.8281,368.6875 L27.8281,376.1094 L30.4063,376.1094 L30.4063,378 L22.7969,378 L22.7969,376.1094 L25.3906,376.1094 L25.3906,368.6875 L22.7969,368.6875 L22.7969,366.7969 Z " fill="#000000"/><text fill="#000000" font-family="sans-serif" font-size="14" font-style="italic" lengthAdjust="spacing" textLength="92" x="41.5" y="377.5825">IDataStructure</text><rect fill="#FFFFFF" height="15.7988" style="stroke:#181818;stroke-width:1.0;stroke-dasharray:2.0,2.0;" width="9" x="146" y="353.5"/><text fill="#000000" font-family="sans-serif" font-size="12" font-style="italic" lengthAdjust="spacing" textLength="7" x="147" y="365.7559">T</text><line style="stroke:#181818;stroke-width:0.5;" x1="8" x2="151" y1="388.5" y2="388.5"/><line style="stroke:#181818;stroke-width:0.5;" x1="8" x2="151" y1="396.5" y2="396.5"/><ellipse cx="18" cy="410.0493" fill="#84BE84" rx="3" ry="3" style="stroke:#038048;stroke-width:1.0;"/><text fill="#000000" font-family="sans-serif" font-size="14" lengthAdjust="spacing" textLength="119" x="27" y="413.6318">isEmpty(): boolean</text><ellipse cx="18" cy="426.1479" fill="#84BE84" rx="3" ry="3" style="stroke:#038048;stroke-width:1.0;"/><text fill="#000000" font-family="sans-serif" font-size="14" lengthAdjust="spacing" textLength="58" x="27" y="429.7305">size(): int</text><ellipse cx="18" cy="442.2466" fill="#84BE84" rx="3" ry="3" style="stroke:#038048;stroke-width:1.0;"/><text fill="#000000" font-family="sans-serif" font-size="14" lengthAdjust="spacing" textLength="114" x="27" y="445.8291">listData(): Object[]</text></g><!--MD5=[f2108a46de9f6d566e4189c775487951]
reverse link Caja to Cliente--><g id="link_Caja_Cliente"><path codeLine="64" d="M463.25,733.1 C451.98,750.06 440.5,767.31 430.21,782.79 " fill="none" id="Caja-backto-Cliente" style="stroke:#181818;stroke-width:1.0;"/><polygon fill="none" points="470.62,722.02,463.9653,724.7976,463.9697,732.0087,470.6244,729.2311,470.62,722.02" style="stroke:#181818;stroke-width:1.0;"/><text fill="#000000" font-family="sans-serif" font-size="13" lengthAdjust="spacing" textLength="7" x="458.7748" y="741.7892">1</text><text fill="#000000" font-family="sans-serif" font-size="13" lengthAdjust="spacing" textLength="22" x="411.8255" y="772.1339">0..1</text></g><!--MD5=[21252647f1a5901273aa60d37bd0237d]
reverse link Cola to Cliente--><g id="link_Cola_Cliente"><path codeLine="65" d="M312.21,716.68 C326.94,738.67 342.81,762.36 356.59,782.91 " fill="none" id="Cola-backto-Cliente" style="stroke:#181818;stroke-width:1.0;"/><polygon fill="none" points="304.85,705.7,304.8698,712.9111,311.5338,715.6663,311.514,708.4552,304.85,705.7" style="stroke:#181818;stroke-width:1.0;"/><text fill="#000000" font-family="sans-serif" font-size="13" lengthAdjust="spacing" textLength="7" x="302.342" y="726.1527">1</text><text fill="#000000" font-family="sans-serif" font-size="13" lengthAdjust="spacing" textLength="5" x="346.048" y="772.2708">*</text></g><!--MD5=[3235e0459c70ed0b4517e6925c360bda]
link CentroDeAtencion to Caja--><g id="link_CentroDeAtencion_Caja"><path codeLine="66" d="M438.17,485.06 C451.55,509.43 466.26,536.23 479.65,560.62 " fill="none" id="CentroDeAtencion-Caja" style="stroke:#181818;stroke-width:1.0;"/><polygon fill="#000000" points="469.9061,527.8574,468.1297,518.5142,462.9772,521.3427,469.9061,527.8574" style="stroke:#000000;stroke-width:1.0;"/><text fill="#000000" font-family="sans-serif" font-size="13" lengthAdjust="spacing" textLength="49" x="476.5" y="528.1938">contiene</text><text fill="#000000" font-family="sans-serif" font-size="13" lengthAdjust="spacing" textLength="7" x="434.6221" y="504.8326">1</text><text fill="#000000" font-family="sans-serif" font-size="13" lengthAdjust="spacing" textLength="5" x="470.0874" y="550.2251">*</text></g><!--MD5=[aef1dea6429d6f28b35baf5f3552d5b0]
link CentroDeAtencion to Cola--><g id="link_CentroDeAtencion_Cola"><path codeLine="67" d="M349.81,485.06 C332.91,515.15 313.92,548.97 297.97,577.35 " fill="none" id="CentroDeAtencion-Cola" style="stroke:#181818;stroke-width:1.0;"/><polygon fill="#000000" points="334.0513,527.8337,341.0434,521.3869,335.9187,518.5083,334.0513,527.8337" style="stroke:#000000;stroke-width:1.0;"/><text fill="#000000" font-family="sans-serif" font-size="13" lengthAdjust="spacing" textLength="21" x="345.5" y="528.1938">usa</text></g><!--MD5=[31bdfad1e23c5ab11f4540e0898d2a4f]
link CentroComercial to CentroDeAtencion--><g id="link_CentroComercial_CentroDeAtencion"><path codeLine="68" d="M394.5,248.32 C394.5,273.79 394.5,300.09 394.5,323.64 " fill="none" id="CentroComercial-CentroDeAtencion" style="stroke:#181818;stroke-width:1.0;"/><polygon fill="#000000" points="399.5,291.4744,402.4389,282.4293,396.5611,282.4293,399.5,291.4744" style="stroke:#000000;stroke-width:1.0;"/><text fill="#000000" font-family="sans-serif" font-size="13" lengthAdjust="spacing" textLength="21" x="408.5" y="291.1938">usa</text></g><!--MD5=[682a2a2d488366f1c829018cb3947914]
link List to Cola--><g id="link_List_Cola"><path codeLine="69" d="M112.03,641.5 C123.68,641.5 135.34,641.5 147,641.5 " fill="none" id="List-Cola" style="stroke:#181818;stroke-width:1.0;"/></g><!--MD5=[bbf043ee690f9c7afb69dd5976a72333]
link List to Node--><g id="link_List_Node"><path codeLine="70" d="M79.5,665.69 C79.5,703.32 79.5,777.23 79.5,814.84 " fill="none" id="List-Node" style="stroke:#181818;stroke-width:1.0;"/></g><!--MD5=[24d7dac2295fba8c0a76fbc30ec93ada]
reverse link IDataStructure to List--><g id="link_IDataStructure_List"><path codeLine="71" d="M79.5,472.92 C79.5,521.44 79.5,583.98 79.5,617.25 " fill="none" id="IDataStructure-backto-List" style="stroke:#181818;stroke-width:1.0;stroke-dasharray:7.0,7.0;"/><polygon fill="none" points="72.5,472.77,79.5,452.77,86.5,472.77,72.5,472.77" style="stroke:#181818;stroke-width:1.0;"/></g><!--MD5=[18761620512f2b58fec3f6a121b06882]
@startuml

class CentroDeAtencion {
    - miCola: Cola
    - cajas: Caja[]
    + atiende(): void
    - queAtiendanLasCajas(): void
    - pasoACaja(unCliente: Cliente): void
    - dimeCajaLibre(cajas: Caja[]): Caja
    - hayCajaLibre(): boolean
}

class Caja {
    - abierta: boolean
    - cliente: Cliente
    - nombreDeCaja: String
    + estaLibre(): boolean
    + recibe(unCliente: Cliente): void
    + atiende(): void
    - despacha(): void
}

class Cliente {
    - packDeItems: int
    - nombreCliente: String
    + entregaProducto(): void
    + tieneProductos(): boolean
}

class Cola {
    - clientes: List<Cliente>
    - personasEnCola: int
    + addCliente(cliente: Cliente): void
    + removeCliente(): Cliente
    + tienePersonas(): boolean
}

class CentroComercial {
    - probabilidadLlegada: double
    - horaApertura: double
    - horaCierre: double
    - estaAbierto: boolean
    - hora: double
    - UN_MINUTO: double
    - COMPRA_MINIMA: int
    - COMPRA_MAXIMA: int
    - cajas: CentroDeAtencion
    - cola: Cola
    + atiende(): void
    - inventaNombre(): String
}

class List<T> {
}

class Node<T> {
}

interface IDataStructure<T> {
    + isEmpty(): boolean
    + size(): int
    + listData(): Object[]
}

Caja "1" o- - "0..1" Cliente 
Cola "1" o- - "*" Cliente 
CentroDeAtencion "1" - - "*" Caja : contiene >
CentroDeAtencion - - Cola : usa >
CentroComercial - - CentroDeAtencion : usa >
Cola -l- List 
List - - Node 
List .u.|> IDataStructure

@enduml

PlantUML version 1.2022.7(Mon Aug 22 19:01:30 CEST 2022)
(GPL source distribution)
Java Runtime: OpenJDK Runtime Environment
JVM: OpenJDK 64-Bit Server VM
Default Encoding: UTF-8
Language: es
Country: ES
--></g></svg>